<svg width="50" height="50" viewBox="0 0 50 50" fill="none" xmlns="http://www.w3.org/2000/svg">
  <g transform="scale(-1, 1) translate(-50, 0)" filter="url(#filter0_d_391_7774)">
    <rect x="3" y="2" width="44" height="44" rx="22" fill="white"/>
    <rect x="3.75" y="2.75" width="42.5" height="42.5" rx="21.25" stroke="black" stroke-opacity="0.06" stroke-width="1.5"/>
    <path d="M29.6875 23.3125C30.0938 23.6875 30.0938 24.3438 29.6875 24.7188L23.6875 30.7188C23.3125 31.125 22.6562 31.125 22.2812 30.7188C21.875 30.3438 21.875 29.6875 22.2812 29.3125L27.5625 24L22.2812 18.7188C21.875 18.3438 21.875 17.6875 22.2812 17.3125C22.6562 16.9062 23.3125 16.9062 23.6875 17.3125L29.6875 23.3125Z" fill="#343E4B"/>
  </g>
  <defs>
    <filter id="filter0_d_391_7774" x="0" y="0" width="50" height="50" filterUnits="userSpaceOnUse" color-interpolation-filters="sRGB">
      <feFlood flood-opacity="0" result="BackgroundImageFix"/>
      <feColorMatrix in="SourceAlpha" type="matrix" values="0 0 0 0 0 0 0 0 0 0 0 0 0 0 0 0 0 0 127 0" result="hardAlpha"/>
      <feOffset dy="1"/>
      <feGaussianBlur stdDeviation="1.5"/>
      <feColorMatrix type="matrix" values="0 0 0 0 0 0 0 0 0 0 0 0 0 0 0 0 0 0 0.12 0"/>
      <feBlend mode="normal" in2="BackgroundImageFix" result="effect1_dropShadow_391_7774"/>
      <feBlend mode="normal" in="SourceGraphic" in2="effect1_dropShadow_391_7774" result="shape"/>
    </filter>
  </defs>
</svg>
