<svg width="20" height="20" viewBox="0 0 20 20" fill="none" xmlns="http://www.w3.org/2000/svg">
<path d="M17.5 10.375C17.5 10.4043 17.5 10.4336 17.5 10.4629C17.4707 11.5469 16.5039 12.25 15.4199 12.25H12.5781C11.7871 12.25 11.1719 12.8945 11.1719 13.6562C11.1719 13.7734 11.1719 13.8613 11.2012 13.9492C11.2598 14.2715 11.377 14.5352 11.4941 14.8281C11.6699 15.2383 11.8457 15.6484 11.8457 16.0586C11.8457 16.9961 11.2305 17.8457 10.293 17.875C10.2051 17.875 10.0879 17.875 9.9707 17.875C5.83984 17.875 2.5 14.5352 2.5 10.375C2.5 6.24414 5.83984 2.875 10 2.875C14.1309 2.875 17.5 6.24414 17.5 10.375ZM6.25 11.3125C6.25 10.8145 5.81055 10.375 5.3125 10.375C4.78516 10.375 4.375 10.8145 4.375 11.3125C4.375 11.8398 4.78516 12.25 5.3125 12.25C5.81055 12.25 6.25 11.8398 6.25 11.3125ZM6.25 8.5C6.74805 8.5 7.1875 8.08984 7.1875 7.5625C7.1875 7.06445 6.74805 6.625 6.25 6.625C5.72266 6.625 5.3125 7.06445 5.3125 7.5625C5.3125 8.08984 5.72266 8.5 6.25 8.5ZM10.9375 5.6875C10.9375 5.18945 10.498 4.75 10 4.75C9.47266 4.75 9.0625 5.18945 9.0625 5.6875C9.0625 6.21484 9.47266 6.625 10 6.625C10.498 6.625 10.9375 6.21484 10.9375 5.6875ZM13.75 8.5C14.248 8.5 14.6875 8.08984 14.6875 7.5625C14.6875 7.06445 14.248 6.625 13.75 6.625C13.2227 6.625 12.8125 7.06445 12.8125 7.5625C12.8125 8.08984 13.2227 8.5 13.75 8.5Z" fill="#343E4B"/>
</svg>
