<svg width="76" height="87" viewBox="0 0 76 87" fill="none" xmlns="http://www.w3.org/2000/svg">
<g filter="url(#filter0_f_170_7414)">
<ellipse cx="38" cy="77.5" rx="10" ry="3.5" fill="black" fill-opacity="0.2"/>
</g>
<g filter="url(#filter1_d_170_7414)">
<path fill-rule="evenodd" clip-rule="evenodd" d="M38 7C54.5685 7 68 20.3509 68 36.82C68 49.4474 60.1039 60.2417 48.9519 64.5905L39.7087 77.1489C39.516 77.4118 39.2602 77.6264 38.9628 77.7745C38.6654 77.9227 38.3351 78 38 78C37.6649 78 37.3346 77.9227 37.0372 77.7745C36.7398 77.6264 36.484 77.4118 36.2913 77.1489L27.0481 64.5905C15.8961 60.2417 8 49.4474 8 36.82C8 20.3509 21.4315 7 38 7Z" fill="white"/>
<path d="M36.3685 79.1172L37.0372 77.7745L36.3685 79.1172C36.8755 79.3697 37.4348 79.5 38 79.5C38.5652 79.5 39.1245 79.3697 39.6315 79.1172L38.9628 77.7745L39.6315 79.1172C40.1381 78.8649 40.5805 78.4963 40.9173 78.0374C40.9177 78.0368 40.9181 78.0362 40.9185 78.0357L49.9056 65.8253C61.3939 61.1588 69.5 49.9354 69.5 36.82C69.5 19.5139 55.3885 5.5 38 5.5C20.6116 5.5 6.5 19.5139 6.5 36.82C6.5 49.9354 14.6061 61.1588 26.0944 65.8253L35.0815 78.0357C35.0819 78.0362 35.0823 78.0368 35.0827 78.0373C35.4194 78.4962 35.8619 78.8649 36.3685 79.1172Z" stroke="url(#paint0_linear_170_7414)" stroke-width="3"/>
</g>
<path d="M62 37C62 23.7452 51.2548 13 38 13C24.7452 13 14 23.7452 14 37C14 50.2548 24.7452 61 38 61C51.2548 61 62 50.2548 62 37Z" fill="#F3F5F8"/>
<path d="M38 24.8633C38.0879 24.7754 38.1758 24.7168 38.2637 24.6289C38.791 24.2773 39.6406 23.75 40.5781 23.75C41.1641 23.75 41.8086 24.043 42.3652 24.3359C42.9512 24.6289 43.5664 25.0391 44.123 25.4785C44.6797 25.918 45.207 26.3867 45.6172 26.8555C45.8223 27.0605 45.998 27.2949 46.1445 27.5293C46.2617 27.7637 46.4375 28.0859 46.4375 28.4375C46.4375 28.7305 46.3496 28.9941 46.2617 29.2578C46.1738 29.5215 46.0566 29.8145 45.8809 30.1367C45.5879 30.7812 45.1191 31.5137 44.5039 32.2168C43.2734 33.623 41.3984 35 38.9375 35H37.0625C34.5723 35 32.6973 33.623 31.4668 32.2168C30.8516 31.5137 30.4121 30.7812 30.0898 30.1367C29.9141 29.8145 29.7969 29.5215 29.709 29.2578C29.6211 29.0234 29.5625 28.7305 29.5625 28.4375C29.5625 28.0859 29.709 27.7637 29.8262 27.5293C29.9727 27.2949 30.1484 27.0605 30.3535 26.8555C30.7637 26.3867 31.291 25.918 31.8477 25.4785C32.4043 25.0391 33.0195 24.6289 33.6055 24.3359C34.1621 24.043 34.8066 23.75 35.4219 23.75C36.3301 23.75 37.1797 24.2773 37.707 24.6289C37.7949 24.7168 37.9121 24.7754 38 24.8633ZM31.4375 28.4375C31.4375 28.6719 33.7812 31.25 38 31.25C42.2188 31.25 44.5625 28.6719 44.5625 28.4375C44.5625 28.2324 43.1855 27.5293 40.4902 27.5C40.373 27.5 40.2852 27.5293 40.1973 27.5586C39.8164 27.6758 38.7324 27.9688 38 27.9688C37.2383 27.9688 36.1836 27.6758 35.7734 27.5586C35.6855 27.5293 35.5977 27.5 35.4805 27.5293C32.7852 27.5293 31.4375 28.2324 31.4375 28.4375Z" fill="#343E4B"/>
<path d="M37.6953 47.4492V48.6562H35.4922V52.0781H33.9922V48.6562H31.6602V52.0781H30.125V48.6562H27.9336V47.4492H37.6953ZM30.5586 41.8125V42.9961H35.0352V41.8125H36.5352V46.4414H29.082V41.8125H30.5586ZM30.5586 45.2578H35.0352V44.168H30.5586V45.2578ZM44.3281 42.293V43.5117H40.3789V45.2695H43.8828V46.4414H40.3789V48.457C42.0137 48.4453 43.3203 48.3867 44.8086 48.1523L44.9492 49.3594C43.2734 49.6055 41.7383 49.6523 39.8164 49.6523H38.9023V42.293H44.3281ZM47.2812 41.4141V52.0781H45.7695V41.4141H47.2812Z" fill="#343E4B"/>
<defs>
<filter id="filter0_f_170_7414" x="26" y="72" width="24" height="11" filterUnits="userSpaceOnUse" color-interpolation-filters="sRGB">
<feFlood flood-opacity="0" result="BackgroundImageFix"/>
<feBlend mode="normal" in="SourceGraphic" in2="BackgroundImageFix" result="shape"/>
<feGaussianBlur stdDeviation="1" result="effect1_foregroundBlur_170_7414"/>
</filter>
<filter id="filter1_d_170_7414" x="0" y="0" width="76" height="87" filterUnits="userSpaceOnUse" color-interpolation-filters="sRGB">
<feFlood flood-opacity="0" result="BackgroundImageFix"/>
<feColorMatrix in="SourceAlpha" type="matrix" values="0 0 0 0 0 0 0 0 0 0 0 0 0 0 0 0 0 0 127 0" result="hardAlpha"/>
<feOffset dy="1"/>
<feGaussianBlur stdDeviation="2.5"/>
<feComposite in2="hardAlpha" operator="out"/>
<feColorMatrix type="matrix" values="0 0 0 0 0 0 0 0 0 0 0 0 0 0 0 0 0 0 0.1 0"/>
<feBlend mode="normal" in2="BackgroundImageFix" result="effect1_dropShadow_170_7414"/>
<feBlend mode="normal" in="SourceGraphic" in2="effect1_dropShadow_170_7414" result="shape"/>
</filter>
<linearGradient id="paint0_linear_170_7414" x1="38" y1="7" x2="38" y2="78" gradientUnits="userSpaceOnUse">
<stop stop-color="#2C5AFF"/>
<stop offset="0.33" stop-color="#65FF7E"/>
<stop offset="0.605" stop-color="#FFF965"/>
<stop offset="1" stop-color="#FF3737"/>
</linearGradient>
</defs>
</svg>
