<svg width="70" height="81" viewBox="0 0 70 81" fill="none" xmlns="http://www.w3.org/2000/svg">
<g filter="url(#filter0_f_173_13223)">
<ellipse cx="35" cy="74.5" rx="10" ry="3.5" fill="black" fill-opacity="0.2"/>
</g>
<g filter="url(#filter1_d_173_13223)">
<path fill-rule="evenodd" clip-rule="evenodd" d="M35 4C51.5685 4 65 17.3509 65 33.82C65 46.4474 57.1039 57.2417 45.9519 61.5905L36.7087 74.1489C36.516 74.4118 36.2602 74.6264 35.9628 74.7745C35.6654 74.9227 35.3351 75 35 75C34.6649 75 34.3346 74.9227 34.0372 74.7745C33.7398 74.6264 33.484 74.4118 33.2913 74.1489L24.0481 61.5905C12.8961 57.2417 5 46.4474 5 33.82C5 17.3509 18.4315 4 35 4Z" fill="#191F28"/>
</g>
<path d="M59 34C59 20.7452 48.2548 10 35 10C21.7452 10 11 20.7452 11 34C11 47.2548 21.7452 58 35 58C48.2548 58 59 47.2548 59 34Z" fill="white"/>
<path d="M35 21.8633C35.0879 21.7754 35.1758 21.7168 35.2637 21.6289C35.791 21.2773 36.6406 20.75 37.5781 20.75C38.1641 20.75 38.8086 21.043 39.3652 21.3359C39.9512 21.6289 40.5664 22.0391 41.123 22.4785C41.6797 22.918 42.207 23.3867 42.6172 23.8555C42.8223 24.0605 42.998 24.2949 43.1445 24.5293C43.2617 24.7637 43.4375 25.0859 43.4375 25.4375C43.4375 25.7305 43.3496 25.9941 43.2617 26.2578C43.1738 26.5215 43.0566 26.8145 42.8809 27.1367C42.5879 27.7812 42.1191 28.5137 41.5039 29.2168C40.2734 30.623 38.3984 32 35.9375 32H34.0625C31.5723 32 29.6973 30.623 28.4668 29.2168C27.8516 28.5137 27.4121 27.7812 27.0898 27.1367C26.9141 26.8145 26.7969 26.5215 26.709 26.2578C26.6211 26.0234 26.5625 25.7305 26.5625 25.4375C26.5625 25.0859 26.709 24.7637 26.8262 24.5293C26.9727 24.2949 27.1484 24.0605 27.3535 23.8555C27.7637 23.3867 28.291 22.918 28.8477 22.4785C29.4043 22.0391 30.0195 21.6289 30.6055 21.3359C31.1621 21.043 31.8066 20.75 32.4219 20.75C33.3301 20.75 34.1797 21.2773 34.707 21.6289C34.7949 21.7168 34.9121 21.7754 35 21.8633ZM28.4375 25.4375C28.4375 25.6719 30.7812 28.25 35 28.25C39.2188 28.25 41.5625 25.6719 41.5625 25.4375C41.5625 25.2324 40.1855 24.5293 37.4902 24.5C37.373 24.5 37.2852 24.5293 37.1973 24.5586C36.8164 24.6758 35.7324 24.9688 35 24.9688C34.2383 24.9688 33.1836 24.6758 32.7734 24.5586C32.6855 24.5293 32.5977 24.5 32.4805 24.5293C29.7852 24.5293 28.4375 25.2324 28.4375 25.4375Z" fill="#343E4B"/>
<path d="M34.6953 44.4492V45.6562H32.4922V49.0781H30.9922V45.6562H28.6602V49.0781H27.125V45.6562H24.9336V44.4492H34.6953ZM27.5586 38.8125V39.9961H32.0352V38.8125H33.5352V43.4414H26.082V38.8125H27.5586ZM27.5586 42.2578H32.0352V41.168H27.5586V42.2578ZM41.3281 39.293V40.5117H37.3789V42.2695H40.8828V43.4414H37.3789V45.457C39.0137 45.4453 40.3203 45.3867 41.8086 45.1523L41.9492 46.3594C40.2734 46.6055 38.7383 46.6523 36.8164 46.6523H35.9023V39.293H41.3281ZM44.2812 38.4141V49.0781H42.7695V38.4141H44.2812Z" fill="#343E4B"/>
<defs>
<filter id="filter0_f_173_13223" x="23" y="69" width="24" height="11" filterUnits="userSpaceOnUse" color-interpolation-filters="sRGB">
<feFlood flood-opacity="0" result="BackgroundImageFix"/>
<feBlend mode="normal" in="SourceGraphic" in2="BackgroundImageFix" result="shape"/>
<feGaussianBlur stdDeviation="1" result="effect1_foregroundBlur_173_13223"/>
</filter>
<filter id="filter1_d_173_13223" x="0" y="0" width="70" height="81" filterUnits="userSpaceOnUse" color-interpolation-filters="sRGB">
<feFlood flood-opacity="0" result="BackgroundImageFix"/>
<feColorMatrix in="SourceAlpha" type="matrix" values="0 0 0 0 0 0 0 0 0 0 0 0 0 0 0 0 0 0 127 0" result="hardAlpha"/>
<feOffset dy="1"/>
<feGaussianBlur stdDeviation="2.5"/>
<feComposite in2="hardAlpha" operator="out"/>
<feColorMatrix type="matrix" values="0 0 0 0 0 0 0 0 0 0 0 0 0 0 0 0 0 0 0.1 0"/>
<feBlend mode="normal" in2="BackgroundImageFix" result="effect1_dropShadow_173_13223"/>
<feBlend mode="normal" in="SourceGraphic" in2="effect1_dropShadow_173_13223" result="shape"/>
</filter>
</defs>
</svg>
