<svg width="74" height="85" viewBox="0 0 74 85" fill="none" xmlns="http://www.w3.org/2000/svg">
<g filter="url(#filter0_f_170_6910)">
<ellipse cx="37" cy="76.5" rx="10" ry="3.5" fill="black" fill-opacity="0.2"/>
</g>
<g filter="url(#filter1_d_170_6910)">
<path fill-rule="evenodd" clip-rule="evenodd" d="M37 6C53.5685 6 67 19.3509 67 35.82C67 48.4474 59.1039 59.2417 47.9519 63.5905L38.7087 76.1489C38.516 76.4118 38.2602 76.6264 37.9628 76.7745C37.6654 76.9227 37.3351 77 37 77C36.6649 77 36.3346 76.9227 36.0372 76.7745C35.7398 76.6264 35.484 76.4118 35.2913 76.1489L26.0481 63.5905C14.8961 59.2417 7 48.4474 7 35.82C7 19.3509 20.4315 6 37 6Z" fill="white"/>
<path d="M35.7029 77.4459L36.0372 76.7745L35.7029 77.4459C36.1051 77.6462 36.5498 77.75 37 77.75C37.4502 77.75 37.8949 77.6462 38.2971 77.4459L37.9628 76.7745L38.2971 77.4459C38.6992 77.2456 39.0483 76.954 39.313 76.5931C39.3132 76.5928 39.3134 76.5926 39.3136 76.5923L48.4279 64.209C59.7486 59.7011 67.75 48.6919 67.75 35.82C67.75 18.9324 53.9785 5.25 37 5.25C20.0215 5.25 6.25 18.9324 6.25 35.82C6.25 48.6919 14.2514 59.7011 25.5721 64.209L34.6864 76.5923C34.6864 76.5923 34.6864 76.5924 34.6864 76.5924C34.9512 76.9536 35.3006 77.2455 35.7029 77.4459Z" stroke="#191F28" stroke-width="1.5"/>
</g>
<path d="M61 36C61 22.7452 50.2548 12 37 12C23.7452 12 13 22.7452 13 36C13 49.2548 23.7452 60 37 60C50.2548 60 61 49.2548 61 36Z" fill="#F3F5F8"/>
<path d="M37 23.8633C37.0879 23.7754 37.1758 23.7168 37.2637 23.6289C37.791 23.2773 38.6406 22.75 39.5781 22.75C40.1641 22.75 40.8086 23.043 41.3652 23.3359C41.9512 23.6289 42.5664 24.0391 43.123 24.4785C43.6797 24.918 44.207 25.3867 44.6172 25.8555C44.8223 26.0605 44.998 26.2949 45.1445 26.5293C45.2617 26.7637 45.4375 27.0859 45.4375 27.4375C45.4375 27.7305 45.3496 27.9941 45.2617 28.2578C45.1738 28.5215 45.0566 28.8145 44.8809 29.1367C44.5879 29.7812 44.1191 30.5137 43.5039 31.2168C42.2734 32.623 40.3984 34 37.9375 34H36.0625C33.5723 34 31.6973 32.623 30.4668 31.2168C29.8516 30.5137 29.4121 29.7812 29.0898 29.1367C28.9141 28.8145 28.7969 28.5215 28.709 28.2578C28.6211 28.0234 28.5625 27.7305 28.5625 27.4375C28.5625 27.0859 28.709 26.7637 28.8262 26.5293C28.9727 26.2949 29.1484 26.0605 29.3535 25.8555C29.7637 25.3867 30.291 24.918 30.8477 24.4785C31.4043 24.0391 32.0195 23.6289 32.6055 23.3359C33.1621 23.043 33.8066 22.75 34.4219 22.75C35.3301 22.75 36.1797 23.2773 36.707 23.6289C36.7949 23.7168 36.9121 23.7754 37 23.8633ZM30.4375 27.4375C30.4375 27.6719 32.7812 30.25 37 30.25C41.2188 30.25 43.5625 27.6719 43.5625 27.4375C43.5625 27.2324 42.1855 26.5293 39.4902 26.5C39.373 26.5 39.2852 26.5293 39.1973 26.5586C38.8164 26.6758 37.7324 26.9688 37 26.9688C36.2383 26.9688 35.1836 26.6758 34.7734 26.5586C34.6855 26.5293 34.5977 26.5 34.4805 26.5293C31.7852 26.5293 30.4375 27.2324 30.4375 27.4375Z" fill="#343E4B"/>
<path d="M36.6953 46.4492V47.6562H34.4922V51.0781H32.9922V47.6562H30.6602V51.0781H29.125V47.6562H26.9336V46.4492H36.6953ZM29.5586 40.8125V41.9961H34.0352V40.8125H35.5352V45.4414H28.082V40.8125H29.5586ZM29.5586 44.2578H34.0352V43.168H29.5586V44.2578ZM43.3281 41.293V42.5117H39.3789V44.2695H42.8828V45.4414H39.3789V47.457C41.0137 47.4453 42.3203 47.3867 43.8086 47.1523L43.9492 48.3594C42.2734 48.6055 40.7383 48.6523 38.8164 48.6523H37.9023V41.293H43.3281ZM46.2812 40.4141V51.0781H44.7695V40.4141H46.2812Z" fill="#343E4B"/>
<defs>
<filter id="filter0_f_170_6910" x="25" y="71" width="24" height="11" filterUnits="userSpaceOnUse" color-interpolation-filters="sRGB">
<feFlood flood-opacity="0" result="BackgroundImageFix"/>
<feBlend mode="normal" in="SourceGraphic" in2="BackgroundImageFix" result="shape"/>
<feGaussianBlur stdDeviation="1" result="effect1_foregroundBlur_170_6910"/>
</filter>
<filter id="filter1_d_170_6910" x="0.5" y="0.5" width="73" height="84" filterUnits="userSpaceOnUse" color-interpolation-filters="sRGB">
<feFlood flood-opacity="0" result="BackgroundImageFix"/>
<feColorMatrix in="SourceAlpha" type="matrix" values="0 0 0 0 0 0 0 0 0 0 0 0 0 0 0 0 0 0 127 0" result="hardAlpha"/>
<feOffset dy="1"/>
<feGaussianBlur stdDeviation="2.5"/>
<feComposite in2="hardAlpha" operator="out"/>
<feColorMatrix type="matrix" values="0 0 0 0 0 0 0 0 0 0 0 0 0 0 0 0 0 0 0.1 0"/>
<feBlend mode="normal" in2="BackgroundImageFix" result="effect1_dropShadow_170_6910"/>
<feBlend mode="normal" in="SourceGraphic" in2="effect1_dropShadow_170_6910" result="shape"/>
</filter>
</defs>
</svg>
