<svg width="20" height="20" viewBox="0 0 20 20" fill="none" xmlns="http://www.w3.org/2000/svg">
<path d="M10 5.86328C10.0879 5.77539 10.1758 5.7168 10.2637 5.62891C10.791 5.27734 11.6406 4.75 12.5781 4.75C13.1641 4.75 13.8086 5.04297 14.3652 5.33594C14.9512 5.62891 15.5664 6.03906 16.123 6.47852C16.6797 6.91797 17.207 7.38672 17.6172 7.85547C17.8223 8.06055 17.998 8.29492 18.1445 8.5293C18.2617 8.76367 18.4375 9.08594 18.4375 9.4375C18.4375 9.73047 18.3496 9.99414 18.2617 10.2578C18.1738 10.5215 18.0566 10.8145 17.8809 11.1367C17.5879 11.7812 17.1191 12.5137 16.5039 13.2168C15.2734 14.623 13.3984 16 10.9375 16H9.0625C6.57227 16 4.69727 14.623 3.4668 13.2168C2.85156 12.5137 2.41211 11.7812 2.08984 11.1367C1.91406 10.8145 1.79688 10.5215 1.70898 10.2578C1.62109 10.0234 1.5625 9.73047 1.5625 9.4375C1.5625 9.08594 1.70898 8.76367 1.82617 8.5293C1.97266 8.29492 2.14844 8.06055 2.35352 7.85547C2.76367 7.38672 3.29102 6.91797 3.84766 6.47852C4.4043 6.03906 5.01953 5.62891 5.60547 5.33594C6.16211 5.04297 6.80664 4.75 7.42188 4.75C8.33008 4.75 9.17969 5.27734 9.70703 5.62891C9.79492 5.7168 9.91211 5.77539 10 5.86328ZM3.4375 9.4375C3.4375 9.67188 5.78125 12.25 10 12.25C14.2188 12.25 16.5625 9.67188 16.5625 9.4375C16.5625 9.23242 15.1855 8.5293 12.4902 8.5C12.373 8.5 12.2852 8.5293 12.1973 8.55859C11.8164 8.67578 10.7324 8.96875 10 8.96875C9.23828 8.96875 8.18359 8.67578 7.77344 8.55859C7.68555 8.5293 7.59766 8.5 7.48047 8.5293C4.78516 8.5293 3.4375 9.23242 3.4375 9.4375Z" fill="current"/>
</svg>
