<svg width="12" height="14" viewBox="0 0 12 14" fill="none" xmlns="http://www.w3.org/2000/svg">
<path d="M2.625 1.16992H9.375C9.98438 1.16992 10.5 1.68555 10.5 2.29492V12.0449C10.5 12.6777 9.98438 13.1699 9.375 13.1699H7.125V11.2949C7.125 10.6855 6.60938 10.1699 6 10.1699C5.36719 10.1699 4.875 10.6855 4.875 11.2949V13.1699H2.625C1.99219 13.1699 1.5 12.6777 1.5 12.0449V2.29492C1.5 1.68555 1.99219 1.16992 2.625 1.16992ZM3 6.79492V7.54492C3 7.75586 3.16406 7.91992 3.375 7.91992H4.125C4.3125 7.91992 4.5 7.75586 4.5 7.54492V6.79492C4.5 6.60742 4.3125 6.41992 4.125 6.41992H3.375C3.16406 6.41992 3 6.60742 3 6.79492ZM5.625 6.41992C5.41406 6.41992 5.25 6.60742 5.25 6.79492V7.54492C5.25 7.75586 5.41406 7.91992 5.625 7.91992H6.375C6.5625 7.91992 6.75 7.75586 6.75 7.54492V6.79492C6.75 6.60742 6.5625 6.41992 6.375 6.41992H5.625ZM7.5 6.79492V7.54492C7.5 7.75586 7.66406 7.91992 7.875 7.91992H8.625C8.8125 7.91992 9 7.75586 9 7.54492V6.79492C9 6.60742 8.8125 6.41992 8.625 6.41992H7.875C7.66406 6.41992 7.5 6.60742 7.5 6.79492ZM3.375 3.41992C3.16406 3.41992 3 3.60742 3 3.79492V4.54492C3 4.75586 3.16406 4.91992 3.375 4.91992H4.125C4.3125 4.91992 4.5 4.75586 4.5 4.54492V3.79492C4.5 3.60742 4.3125 3.41992 4.125 3.41992H3.375ZM5.25 3.79492V4.54492C5.25 4.75586 5.41406 4.91992 5.625 4.91992H6.375C6.5625 4.91992 6.75 4.75586 6.75 4.54492V3.79492C6.75 3.60742 6.5625 3.41992 6.375 3.41992H5.625C5.41406 3.41992 5.25 3.60742 5.25 3.79492ZM7.875 3.41992C7.66406 3.41992 7.5 3.60742 7.5 3.79492V4.54492C7.5 4.75586 7.66406 4.91992 7.875 4.91992H8.625C8.8125 4.91992 9 4.75586 9 4.54492V3.79492C9 3.60742 8.8125 3.41992 8.625 3.41992H7.875Z" fill="white"/>
</svg>
