<svg width="74" height="85" viewBox="0 0 74 85" fill="none" xmlns="http://www.w3.org/2000/svg">
<g filter="url(#filter0_f_170_7135)">
<ellipse cx="37" cy="76.5" rx="10" ry="3.5" fill="black" fill-opacity="0.2"/>
</g>
<g filter="url(#filter1_d_170_7135)">
<path fill-rule="evenodd" clip-rule="evenodd" d="M37 6C53.5685 6 67 19.3509 67 35.82C67 48.4474 59.1039 59.2417 47.9519 63.5905L38.7087 76.1489C38.516 76.4118 38.2602 76.6264 37.9628 76.7745C37.6654 76.9227 37.3351 77 37 77C36.6649 77 36.3346 76.9227 36.0372 76.7745C35.7398 76.6264 35.484 76.4118 35.2913 76.1489L26.0481 63.5905C14.8961 59.2417 7 48.4474 7 35.82C7 19.3509 20.4315 6 37 6Z" fill="white"/>
<path d="M35.7029 77.4459L36.0372 76.7745L35.7029 77.4459C36.1051 77.6462 36.5498 77.75 37 77.75C37.4502 77.75 37.8949 77.6462 38.2971 77.4459L37.9628 76.7745L38.2971 77.4459C38.6992 77.2456 39.0483 76.954 39.313 76.5931C39.3132 76.5928 39.3134 76.5926 39.3136 76.5923L48.4279 64.209C59.7486 59.7011 67.75 48.6919 67.75 35.82C67.75 18.9324 53.9785 5.25 37 5.25C20.0215 5.25 6.25 18.9324 6.25 35.82C6.25 48.6919 14.2514 59.7011 25.5721 64.209L34.6864 76.5923C34.6864 76.5923 34.6864 76.5924 34.6864 76.5924C34.9512 76.9536 35.3006 77.2455 35.7029 77.4459Z" stroke="#191F28" stroke-width="1.5"/>
</g>
<path d="M61 36C61 22.7452 50.2548 12 37 12C23.7452 12 13 22.7452 13 36C13 49.2548 23.7452 60 37 60C50.2548 60 61 49.2548 61 36Z" fill="#343E4B"/>
<path d="M37.8203 21.4023L39.7246 25.2988L43.9141 25.9141C44.2656 25.9727 44.5586 26.207 44.6758 26.5586C44.793 26.8809 44.7051 27.2617 44.4414 27.4961L41.3945 30.5137L42.127 34.791C42.1855 35.1426 42.0391 35.4941 41.7461 35.6992C41.4531 35.9336 41.0723 35.9336 40.75 35.7871L37 33.7656L33.2207 35.7871C32.9277 35.9336 32.5469 35.9336 32.2539 35.6992C31.9609 35.4941 31.8145 35.1426 31.873 34.791L32.5762 30.5137L29.5293 27.4961C29.2949 27.2617 29.207 26.8809 29.2949 26.5586C29.4121 26.207 29.7051 25.9727 30.0566 25.9141L34.2754 25.2988L36.1504 21.4023C36.2969 21.0801 36.6191 20.875 37 20.875C37.3516 20.875 37.6738 21.0801 37.8203 21.4023Z" fill="white"/>
<path d="M30.5059 51.0781H29.0645V45.6992H28.0918V50.6094H26.6973V40.6484H28.0918V44.4922H29.0645V40.4141H30.5059V51.0781ZM21.2246 47.9609C21.9082 47.5703 22.4746 47.1504 22.9238 46.7012C23.377 46.252 23.7324 45.7617 23.9902 45.2305L21.4941 45.5L21.3184 44.2344L24.4004 44.0703C24.498 43.6719 24.5605 43.2656 24.5879 42.8516H21.8691V41.6562H26.041C26.0371 42.7539 25.9219 43.7363 25.6953 44.6035C25.4727 45.4707 25.0723 46.2773 24.4941 47.0234C23.9199 47.7656 23.1191 48.4297 22.0918 49.0156L21.2246 47.9609ZM40.5605 46.9531H39.0605V40.4258H40.5605V46.9531ZM32.1816 41.0117H37.127V44.2812H33.6582V45.3008C34.5996 45.293 35.4082 45.2695 36.084 45.2305C36.7637 45.1914 37.4473 45.1211 38.1348 45.0195L38.3223 46.2148C37.5801 46.332 36.8379 46.4121 36.0957 46.4551C35.3535 46.498 34.4629 46.5195 33.4238 46.5195H33.1309H32.1934V43.1445H35.6387V42.207H32.1816V41.0117ZM33.2246 47.4219H40.5605V51.0781H39.0605V48.6289H33.2246V47.4219ZM51.002 51.1016H49.5254V45.3828H47.6504V44.1758H49.5254V40.4141H51.002V51.1016ZM42.4941 41.3047H47.4746V42.5117H43.9824V44.2812H47.0879V45.4531H43.9824V47.4688C44.7871 47.4609 45.4961 47.4395 46.1094 47.4043C46.7266 47.3652 47.3457 47.2969 47.9668 47.1992L48.1191 48.3945C47.3848 48.5039 46.6523 48.5801 45.9219 48.623C45.1914 48.6621 44.3301 48.6836 43.3379 48.6875H42.4941V41.3047Z" fill="white"/>
<defs>
<filter id="filter0_f_170_7135" x="25" y="71" width="24" height="11" filterUnits="userSpaceOnUse" color-interpolation-filters="sRGB">
<feFlood flood-opacity="0" result="BackgroundImageFix"/>
<feBlend mode="normal" in="SourceGraphic" in2="BackgroundImageFix" result="shape"/>
<feGaussianBlur stdDeviation="1" result="effect1_foregroundBlur_170_7135"/>
</filter>
<filter id="filter1_d_170_7135" x="0.5" y="0.5" width="73" height="84" filterUnits="userSpaceOnUse" color-interpolation-filters="sRGB">
<feFlood flood-opacity="0" result="BackgroundImageFix"/>
<feColorMatrix in="SourceAlpha" type="matrix" values="0 0 0 0 0 0 0 0 0 0 0 0 0 0 0 0 0 0 127 0" result="hardAlpha"/>
<feOffset dy="1"/>
<feGaussianBlur stdDeviation="2.5"/>
<feComposite in2="hardAlpha" operator="out"/>
<feColorMatrix type="matrix" values="0 0 0 0 0 0 0 0 0 0 0 0 0 0 0 0 0 0 0.1 0"/>
<feBlend mode="normal" in2="BackgroundImageFix" result="effect1_dropShadow_170_7135"/>
<feBlend mode="normal" in="SourceGraphic" in2="effect1_dropShadow_170_7135" result="shape"/>
</filter>
</defs>
</svg>
