<svg width="70" height="81" viewBox="0 0 70 81" fill="none" xmlns="http://www.w3.org/2000/svg">
<g filter="url(#filter0_f_173_13213)">
<ellipse cx="35" cy="74.5" rx="10" ry="3.5" fill="black" fill-opacity="0.2"/>
</g>
<g filter="url(#filter1_d_173_13213)">
<path fill-rule="evenodd" clip-rule="evenodd" d="M35 4C51.5685 4 65 17.3509 65 33.82C65 46.4474 57.1039 57.2417 45.9519 61.5905L36.7087 74.1489C36.516 74.4118 36.2602 74.6264 35.9628 74.7745C35.6654 74.9227 35.3351 75 35 75C34.6649 75 34.3346 74.9227 34.0372 74.7745C33.7398 74.6264 33.484 74.4118 33.2913 74.1489L24.0481 61.5905C12.8961 57.2417 5 46.4474 5 33.82C5 17.3509 18.4315 4 35 4Z" fill="#191F28"/>
</g>
<path d="M59 34C59 20.7452 48.2548 10 35 10C21.7452 10 11 20.7452 11 34C11 47.2548 21.7452 58 35 58C48.2548 58 59 47.2548 59 34Z" fill="white"/>
<path d="M44.3457 19.4902L42.6758 24.9395C43.7012 25.877 44.375 27.2246 44.375 28.7188C44.375 31.5898 42.0605 33.875 39.2188 33.875H32.1875C29.5801 33.875 27.5 31.7949 27.5 29.1875V26.3164L26.6211 25.7012C25.9766 25.2617 25.625 24.5293 25.625 23.7676V22.1562C25.625 21.9805 25.7129 21.834 25.8594 21.7461C26.0059 21.6875 26.2109 21.6875 26.3574 21.7754L28.4375 23.2402L30.4883 21.7754C30.6348 21.6875 30.8398 21.6582 30.9863 21.7461C31.1328 21.834 31.25 21.9805 31.25 22.1562V23.7676C31.25 24.5293 30.8691 25.2617 30.2246 25.7012L29.375 26.3164V28.6895C29.375 29.0703 29.8145 29.3047 30.1367 29.041L35.0586 25.0273C36.2305 24.0898 37.6953 23.5625 39.1895 23.5625C39.7168 23.5625 40.2441 23.6504 40.7422 23.8262L43.4961 19.1094C43.6133 18.9043 43.8477 18.8164 44.082 18.9336C44.2871 19.0215 44.4043 19.2559 44.3457 19.4902ZM40.1562 27.0781C39.7461 27.0781 39.4531 27.4004 39.4531 27.7812C39.4531 28.1914 39.7461 28.4844 40.1562 28.4844C40.5371 28.4844 40.8594 28.1914 40.8594 27.7812C40.8594 27.4004 40.5371 27.0781 40.1562 27.0781Z" fill="#343E4B"/>
<path d="M28.5059 38.4141V49.0781H27.0645V43.6992H26.0918V48.6094H24.6973V38.6484H26.0918V42.4922H27.0645V38.4141H28.5059ZM24.041 39.6562C24.041 42.6914 23.291 45.1875 20.0918 47.0156L19.2246 45.9609C20.6191 45.1699 21.4805 44.2734 21.9902 43.2305L19.4941 43.5L19.3184 42.2344L22.4004 42.0703C22.4941 41.6836 22.5527 41.2793 22.5879 40.8516H19.8691V39.6562H24.041ZM38.5605 38.4258V44.9531H37.0605V38.4258H38.5605ZM38.5605 45.4219V49.0781H37.0605V46.6289H31.2246V45.4219H38.5605ZM35.127 39.0117V42.2812H31.6582V43.3008C33.4395 43.2891 34.6934 43.2363 36.1348 43.0195L36.3223 44.2148C34.6816 44.4727 33.252 44.5195 31.1309 44.5195H30.1934V41.1445H33.6387V40.207H30.1816V39.0117H35.127ZM49.002 38.4141V49.1016H47.5254V43.3828H45.6504V42.1758H47.5254V38.4141H49.002ZM45.4746 39.3047V40.5117H41.9824V42.2812H45.0879V43.4531H41.9824V45.4688C43.459 45.457 44.6426 45.4043 45.9668 45.1992L46.1191 46.3945C44.5605 46.6289 43.166 46.6875 41.3379 46.6875H40.4941V39.3047H45.4746Z" fill="#343E4B"/>
<defs>
<filter id="filter0_f_173_13213" x="23" y="69" width="24" height="11" filterUnits="userSpaceOnUse" color-interpolation-filters="sRGB">
<feFlood flood-opacity="0" result="BackgroundImageFix"/>
<feBlend mode="normal" in="SourceGraphic" in2="BackgroundImageFix" result="shape"/>
<feGaussianBlur stdDeviation="1" result="effect1_foregroundBlur_173_13213"/>
</filter>
<filter id="filter1_d_173_13213" x="0" y="0" width="70" height="81" filterUnits="userSpaceOnUse" color-interpolation-filters="sRGB">
<feFlood flood-opacity="0" result="BackgroundImageFix"/>
<feColorMatrix in="SourceAlpha" type="matrix" values="0 0 0 0 0 0 0 0 0 0 0 0 0 0 0 0 0 0 127 0" result="hardAlpha"/>
<feOffset dy="1"/>
<feGaussianBlur stdDeviation="2.5"/>
<feComposite in2="hardAlpha" operator="out"/>
<feColorMatrix type="matrix" values="0 0 0 0 0 0 0 0 0 0 0 0 0 0 0 0 0 0 0.1 0"/>
<feBlend mode="normal" in2="BackgroundImageFix" result="effect1_dropShadow_173_13213"/>
<feBlend mode="normal" in="SourceGraphic" in2="effect1_dropShadow_173_13213" result="shape"/>
</filter>
</defs>
</svg>
