<svg width="76" height="87" viewBox="0 0 76 87" fill="none" xmlns="http://www.w3.org/2000/svg">
<g filter="url(#filter0_f_170_7405)">
<ellipse cx="38" cy="77.5" rx="10" ry="3.5" fill="black" fill-opacity="0.2"/>
</g>
<g filter="url(#filter1_d_170_7405)">
<path fill-rule="evenodd" clip-rule="evenodd" d="M38 7C54.5685 7 68 20.3509 68 36.82C68 49.4474 60.1039 60.2417 48.9519 64.5905L39.7087 77.1489C39.516 77.4118 39.2602 77.6264 38.9628 77.7745C38.6654 77.9227 38.3351 78 38 78C37.6649 78 37.3346 77.9227 37.0372 77.7745C36.7398 77.6264 36.484 77.4118 36.2913 77.1489L27.0481 64.5905C15.8961 60.2417 8 49.4474 8 36.82C8 20.3509 21.4315 7 38 7Z" fill="white"/>
<path d="M36.3685 79.1172L37.0372 77.7745L36.3685 79.1172C36.8755 79.3697 37.4348 79.5 38 79.5C38.5652 79.5 39.1245 79.3697 39.6315 79.1172L38.9628 77.7745L39.6315 79.1172C40.1381 78.8649 40.5805 78.4963 40.9173 78.0374C40.9177 78.0368 40.9181 78.0362 40.9185 78.0357L49.9056 65.8253C61.3939 61.1588 69.5 49.9354 69.5 36.82C69.5 19.5139 55.3885 5.5 38 5.5C20.6116 5.5 6.5 19.5139 6.5 36.82C6.5 49.9354 14.6061 61.1588 26.0944 65.8253L35.0815 78.0357C35.0819 78.0362 35.0823 78.0368 35.0827 78.0373C35.4194 78.4962 35.8619 78.8649 36.3685 79.1172Z" stroke="url(#paint0_linear_170_7405)" stroke-width="3"/>
</g>
<path d="M62 37C62 23.7452 51.2548 13 38 13C24.7452 13 14 23.7452 14 37C14 50.2548 24.7452 61 38 61C51.2548 61 62 50.2548 62 37Z" fill="#F3F5F8"/>
<path d="M47.3457 22.4902L45.6758 27.9395C46.7012 28.877 47.375 30.2246 47.375 31.7188C47.375 34.5898 45.0605 36.875 42.2188 36.875H35.1875C32.5801 36.875 30.5 34.7949 30.5 32.1875V29.3164L29.6211 28.7012C28.9766 28.2617 28.625 27.5293 28.625 26.7676V25.1562C28.625 24.9805 28.7129 24.834 28.8594 24.7461C29.0059 24.6875 29.2109 24.6875 29.3574 24.7754L31.4375 26.2402L33.4883 24.7754C33.6348 24.6875 33.8398 24.6582 33.9863 24.7461C34.1328 24.834 34.25 24.9805 34.25 25.1562V26.7676C34.25 27.5293 33.8691 28.2617 33.2246 28.7012L32.375 29.3164V31.6895C32.375 32.0703 32.8145 32.3047 33.1367 32.041L38.0586 28.0273C39.2305 27.0898 40.6953 26.5625 42.1895 26.5625C42.7168 26.5625 43.2441 26.6504 43.7422 26.8262L46.4961 22.1094C46.6133 21.9043 46.8477 21.8164 47.082 21.9336C47.2871 22.0215 47.4043 22.2559 47.3457 22.4902ZM43.1562 30.0781C42.7461 30.0781 42.4531 30.4004 42.4531 30.7812C42.4531 31.1914 42.7461 31.4844 43.1562 31.4844C43.5371 31.4844 43.8594 31.1914 43.8594 30.7812C43.8594 30.4004 43.5371 30.0781 43.1562 30.0781Z" fill="#343E4B"/>
<path d="M31.5059 41.4141V52.0781H30.0645V46.6992H29.0918V51.6094H27.6973V41.6484H29.0918V45.4922H30.0645V41.4141H31.5059ZM27.041 42.6562C27.041 45.6914 26.291 48.1875 23.0918 50.0156L22.2246 48.9609C23.6191 48.1699 24.4805 47.2734 24.9902 46.2305L22.4941 46.5L22.3184 45.2344L25.4004 45.0703C25.4941 44.6836 25.5527 44.2793 25.5879 43.8516H22.8691V42.6562H27.041ZM41.5605 41.4258V47.9531H40.0605V41.4258H41.5605ZM41.5605 48.4219V52.0781H40.0605V49.6289H34.2246V48.4219H41.5605ZM38.127 42.0117V45.2812H34.6582V46.3008C36.4395 46.2891 37.6934 46.2363 39.1348 46.0195L39.3223 47.2148C37.6816 47.4727 36.252 47.5195 34.1309 47.5195H33.1934V44.1445H36.6387V43.207H33.1816V42.0117H38.127ZM52.002 41.4141V52.1016H50.5254V46.3828H48.6504V45.1758H50.5254V41.4141H52.002ZM48.4746 42.3047V43.5117H44.9824V45.2812H48.0879V46.4531H44.9824V48.4688C46.459 48.457 47.6426 48.4043 48.9668 48.1992L49.1191 49.3945C47.5605 49.6289 46.166 49.6875 44.3379 49.6875H43.4941V42.3047H48.4746Z" fill="#343E4B"/>
<defs>
<filter id="filter0_f_170_7405" x="26" y="72" width="24" height="11" filterUnits="userSpaceOnUse" color-interpolation-filters="sRGB">
<feFlood flood-opacity="0" result="BackgroundImageFix"/>
<feBlend mode="normal" in="SourceGraphic" in2="BackgroundImageFix" result="shape"/>
<feGaussianBlur stdDeviation="1" result="effect1_foregroundBlur_170_7405"/>
</filter>
<filter id="filter1_d_170_7405" x="0" y="0" width="76" height="87" filterUnits="userSpaceOnUse" color-interpolation-filters="sRGB">
<feFlood flood-opacity="0" result="BackgroundImageFix"/>
<feColorMatrix in="SourceAlpha" type="matrix" values="0 0 0 0 0 0 0 0 0 0 0 0 0 0 0 0 0 0 127 0" result="hardAlpha"/>
<feOffset dy="1"/>
<feGaussianBlur stdDeviation="2.5"/>
<feComposite in2="hardAlpha" operator="out"/>
<feColorMatrix type="matrix" values="0 0 0 0 0 0 0 0 0 0 0 0 0 0 0 0 0 0 0.1 0"/>
<feBlend mode="normal" in2="BackgroundImageFix" result="effect1_dropShadow_170_7405"/>
<feBlend mode="normal" in="SourceGraphic" in2="effect1_dropShadow_170_7405" result="shape"/>
</filter>
<linearGradient id="paint0_linear_170_7405" x1="38" y1="7" x2="38" y2="78" gradientUnits="userSpaceOnUse">
<stop stop-color="#2C5AFF"/>
<stop offset="0.33" stop-color="#65FF7E"/>
<stop offset="0.605" stop-color="#FFF965"/>
<stop offset="1" stop-color="#FF3737"/>
</linearGradient>
</defs>
</svg>
