<svg width="74" height="85" viewBox="0 0 74 85" fill="none" xmlns="http://www.w3.org/2000/svg">
<g filter="url(#filter0_f_170_6903)">
<ellipse cx="37" cy="76.5" rx="10" ry="3.5" fill="black" fill-opacity="0.2"/>
</g>
<g filter="url(#filter1_d_170_6903)">
<path fill-rule="evenodd" clip-rule="evenodd" d="M37 6C53.5685 6 67 19.3509 67 35.82C67 48.4474 59.1039 59.2417 47.9519 63.5905L38.7087 76.1489C38.516 76.4118 38.2602 76.6264 37.9628 76.7745C37.6654 76.9227 37.3351 77 37 77C36.6649 77 36.3346 76.9227 36.0372 76.7745C35.7398 76.6264 35.484 76.4118 35.2913 76.1489L26.0481 63.5905C14.8961 59.2417 7 48.4474 7 35.82C7 19.3509 20.4315 6 37 6Z" fill="white"/>
<path d="M35.7029 77.4459L36.0372 76.7745L35.7029 77.4459C36.1051 77.6462 36.5498 77.75 37 77.75C37.4502 77.75 37.8949 77.6462 38.2971 77.4459L37.9628 76.7745L38.2971 77.4459C38.6992 77.2456 39.0483 76.954 39.313 76.5931C39.3132 76.5928 39.3134 76.5926 39.3136 76.5923L48.4279 64.209C59.7486 59.7011 67.75 48.6919 67.75 35.82C67.75 18.9324 53.9785 5.25 37 5.25C20.0215 5.25 6.25 18.9324 6.25 35.82C6.25 48.6919 14.2514 59.7011 25.5721 64.209L34.6864 76.5923C34.6864 76.5923 34.6864 76.5924 34.6864 76.5924C34.9512 76.9536 35.3006 77.2455 35.7029 77.4459Z" stroke="#191F28" stroke-width="1.5"/>
</g>
<path d="M61 36C61 22.7452 50.2548 12 37 12C23.7452 12 13 22.7452 13 36C13 49.2548 23.7452 60 37 60C50.2548 60 61 49.2548 61 36Z" fill="#F3F5F8"/>
<path d="M46.3457 21.4902L44.6758 26.9395C45.7012 27.877 46.375 29.2246 46.375 30.7188C46.375 33.5898 44.0605 35.875 41.2188 35.875H34.1875C31.5801 35.875 29.5 33.7949 29.5 31.1875V28.3164L28.6211 27.7012C27.9766 27.2617 27.625 26.5293 27.625 25.7676V24.1562C27.625 23.9805 27.7129 23.834 27.8594 23.7461C28.0059 23.6875 28.2109 23.6875 28.3574 23.7754L30.4375 25.2402L32.4883 23.7754C32.6348 23.6875 32.8398 23.6582 32.9863 23.7461C33.1328 23.834 33.25 23.9805 33.25 24.1562V25.7676C33.25 26.5293 32.8691 27.2617 32.2246 27.7012L31.375 28.3164V30.6895C31.375 31.0703 31.8145 31.3047 32.1367 31.041L37.0586 27.0273C38.2305 26.0898 39.6953 25.5625 41.1895 25.5625C41.7168 25.5625 42.2441 25.6504 42.7422 25.8262L45.4961 21.1094C45.6133 20.9043 45.8477 20.8164 46.082 20.9336C46.2871 21.0215 46.4043 21.2559 46.3457 21.4902ZM42.1562 29.0781C41.7461 29.0781 41.4531 29.4004 41.4531 29.7812C41.4531 30.1914 41.7461 30.4844 42.1562 30.4844C42.5371 30.4844 42.8594 30.1914 42.8594 29.7812C42.8594 29.4004 42.5371 29.0781 42.1562 29.0781Z" fill="#343E4B"/>
<path d="M30.5059 40.4141V51.0781H29.0645V45.6992H28.0918V50.6094H26.6973V40.6484H28.0918V44.4922H29.0645V40.4141H30.5059ZM26.041 41.6562C26.041 44.6914 25.291 47.1875 22.0918 49.0156L21.2246 47.9609C22.6191 47.1699 23.4805 46.2734 23.9902 45.2305L21.4941 45.5L21.3184 44.2344L24.4004 44.0703C24.4941 43.6836 24.5527 43.2793 24.5879 42.8516H21.8691V41.6562H26.041ZM40.5605 40.4258V46.9531H39.0605V40.4258H40.5605ZM40.5605 47.4219V51.0781H39.0605V48.6289H33.2246V47.4219H40.5605ZM37.127 41.0117V44.2812H33.6582V45.3008C35.4395 45.2891 36.6934 45.2363 38.1348 45.0195L38.3223 46.2148C36.6816 46.4727 35.252 46.5195 33.1309 46.5195H32.1934V43.1445H35.6387V42.207H32.1816V41.0117H37.127ZM51.002 40.4141V51.1016H49.5254V45.3828H47.6504V44.1758H49.5254V40.4141H51.002ZM47.4746 41.3047V42.5117H43.9824V44.2812H47.0879V45.4531H43.9824V47.4688C45.459 47.457 46.6426 47.4043 47.9668 47.1992L48.1191 48.3945C46.5605 48.6289 45.166 48.6875 43.3379 48.6875H42.4941V41.3047H47.4746Z" fill="#343E4B"/>
<defs>
<filter id="filter0_f_170_6903" x="25" y="71" width="24" height="11" filterUnits="userSpaceOnUse" color-interpolation-filters="sRGB">
<feFlood flood-opacity="0" result="BackgroundImageFix"/>
<feBlend mode="normal" in="SourceGraphic" in2="BackgroundImageFix" result="shape"/>
<feGaussianBlur stdDeviation="1" result="effect1_foregroundBlur_170_6903"/>
</filter>
<filter id="filter1_d_170_6903" x="0.5" y="0.5" width="73" height="84" filterUnits="userSpaceOnUse" color-interpolation-filters="sRGB">
<feFlood flood-opacity="0" result="BackgroundImageFix"/>
<feColorMatrix in="SourceAlpha" type="matrix" values="0 0 0 0 0 0 0 0 0 0 0 0 0 0 0 0 0 0 127 0" result="hardAlpha"/>
<feOffset dy="1"/>
<feGaussianBlur stdDeviation="2.5"/>
<feComposite in2="hardAlpha" operator="out"/>
<feColorMatrix type="matrix" values="0 0 0 0 0 0 0 0 0 0 0 0 0 0 0 0 0 0 0.1 0"/>
<feBlend mode="normal" in2="BackgroundImageFix" result="effect1_dropShadow_170_6903"/>
<feBlend mode="normal" in="SourceGraphic" in2="effect1_dropShadow_170_6903" result="shape"/>
</filter>
</defs>
</svg>
