<svg width="20" height="20" viewBox="0 0 20 20" fill="none" xmlns="http://www.w3.org/2000/svg">
<path d="M19.3457 3.49023L17.6758 8.93945C18.7012 9.87695 19.375 11.2246 19.375 12.7188C19.375 15.5898 17.0605 17.875 14.2188 17.875H7.1875C4.58008 17.875 2.5 15.7949 2.5 13.1875V10.3164L1.62109 9.70117C0.976562 9.26172 0.625 8.5293 0.625 7.76758V6.15625C0.625 5.98047 0.712891 5.83398 0.859375 5.74609C1.00586 5.6875 1.21094 5.6875 1.35742 5.77539L3.4375 7.24023L5.48828 5.77539C5.63477 5.6875 5.83984 5.6582 5.98633 5.74609C6.13281 5.83398 6.25 5.98047 6.25 6.15625V7.76758C6.25 8.5293 5.86914 9.26172 5.22461 9.70117L4.375 10.3164V12.6895C4.375 13.0703 4.81445 13.3047 5.13672 13.041L10.0586 9.02734C11.2305 8.08984 12.6953 7.5625 14.1895 7.5625C14.7168 7.5625 15.2441 7.65039 15.7422 7.82617L18.4961 3.10938C18.6133 2.9043 18.8477 2.81641 19.082 2.93359C19.2871 3.02148 19.4043 3.25586 19.3457 3.49023ZM15.1562 11.0781C14.7461 11.0781 14.4531 11.4004 14.4531 11.7812C14.4531 12.1914 14.7461 12.4844 15.1562 12.4844C15.5371 12.4844 15.8594 12.1914 15.8594 11.7812C15.8594 11.4004 15.5371 11.0781 15.1562 11.0781Z" fill="current"/>
</svg>
