<svg width="18" height="18" viewBox="0 0 18 18" fill="none" xmlns="http://www.w3.org/2000/svg">
<path d="M3.69141 7.38672C3.48047 7.98438 2.8125 8.30078 2.25 8.08984C1.65234 7.87891 1.33594 7.24609 1.54688 6.64844C1.93359 5.55859 2.56641 4.53906 3.41016 3.69531C6.50391 0.636719 11.4609 0.636719 14.5547 3.69531L15.1523 4.32812V2.5C15.1523 1.90234 15.6797 1.375 16.2773 1.375C16.9102 1.375 17.4023 1.90234 17.4023 2.5V7C17.4023 7.63281 16.9102 8.125 16.2773 8.125H11.8125C11.1797 8.125 10.6875 7.63281 10.6875 7C10.6875 6.40234 11.1797 5.875 11.8125 5.875H13.5703L12.9727 5.27734C10.7578 3.09766 7.20703 3.09766 4.99219 5.27734C4.39453 5.91016 3.9375 6.61328 3.69141 7.38672ZM1.37109 10.4453C1.40625 10.4102 1.47656 10.4102 1.51172 10.4102C1.58203 10.4102 1.61719 10.375 1.6875 10.375H6.1875C6.78516 10.375 7.3125 10.9023 7.3125 11.5C7.3125 12.1328 6.78516 12.625 6.1875 12.625H4.39453L4.99219 13.2578C7.20703 15.4375 10.7578 15.4375 12.9727 13.2578C13.5703 12.625 14.0273 11.9219 14.2734 11.1484C14.4844 10.5508 15.1523 10.2344 15.7148 10.4453C16.3125 10.6562 16.6289 11.2891 16.418 11.8867C16.0312 12.9766 15.3984 13.9609 14.5547 14.8398C11.4609 17.8984 6.50391 17.8984 3.41016 14.8398L2.8125 14.207V16C2.8125 16.6328 2.28516 17.125 1.6875 17.125C1.05469 17.125 0.5625 16.6328 0.5625 16V11.5352C0.5625 11.4648 0.5625 11.3945 0.5625 11.3594C0.5625 11.2891 0.5625 11.2539 0.597656 11.2188C0.632812 11.043 0.738281 10.8672 0.878906 10.7266C1.01953 10.5859 1.19531 10.4805 1.37109 10.4453Z" fill="#191F28"/>
</svg>
