<svg width="24" height="24" viewBox="0 0 24 24" fill="none" xmlns="http://www.w3.org/2000/svg">
<rect width="24" height="24" rx="12" fill="white"/>
<rect x="0.5" y="0.5" width="23" height="23" rx="11.5" stroke="black" stroke-opacity="0.06"/>
<path d="M17.0586 6.36328H17.0312C16.7852 6.11719 16.375 6.11719 16.1289 6.36328L15.3086 7.15625L16.5938 8.44141L17.3867 7.62109C17.6328 7.375 17.6328 6.96484 17.3867 6.69141L17.0586 6.36328ZM10.7148 11.7773C10.6328 11.832 10.5781 11.9414 10.5508 12.0508L10.0859 13.6367L11.6992 13.1992C11.8086 13.1719 11.8906 13.1172 11.9727 13.0352L15.6641 9.34375L14.4062 8.08594L10.7148 11.7773ZM15.1992 5.43359C15.9648 4.66797 17.1953 4.66797 17.9609 5.43359L18.3164 5.78906C19.082 6.55469 19.082 7.78516 18.3164 8.55078L12.9023 13.9648C12.6836 14.1836 12.3828 14.3477 12.0547 14.457L9.32031 15.2227C9.10156 15.3047 8.85547 15.25 8.69141 15.0586C8.5 14.8945 8.44531 14.6484 8.5 14.4297L9.29297 11.6953C9.375 11.3672 9.56641 11.0664 9.78516 10.8477L15.1992 5.43359ZM7.40625 6.5H10.4688C10.8242 6.5 11.125 6.80078 11.125 7.15625C11.125 7.53906 10.8242 7.8125 10.4688 7.8125H7.40625C6.77734 7.8125 6.3125 8.30469 6.3125 8.90625V16.3438C6.3125 16.9727 6.77734 17.4375 7.40625 17.4375H14.8438C15.4453 17.4375 15.9375 16.9727 15.9375 16.3438V13.2812C15.9375 12.9258 16.2109 12.625 16.5938 12.625C16.9492 12.625 17.25 12.9258 17.25 13.2812V16.3438C17.25 17.6836 16.1562 18.75 14.8438 18.75H7.40625C6.06641 18.75 5 17.6836 5 16.3438V8.90625C5 7.59375 6.06641 6.5 7.40625 6.5Z" fill="black" fill-opacity="0.54"/>
</svg>
