<svg width="20" height="20" viewBox="0 0 20 20" fill="none" xmlns="http://www.w3.org/2000/svg">
<path d="M2.5 10.375C2.5 7.70898 3.90625 5.24805 6.25 3.90039C8.56445 2.55273 11.4062 2.55273 13.75 3.90039C16.0645 5.24805 17.5 7.70898 17.5 10.375C17.5 13.0703 16.0645 15.5312 13.75 16.8789C11.4062 18.2266 8.56445 18.2266 6.25 16.8789C3.90625 15.5312 2.5 13.0703 2.5 10.375ZM10 11.3125C9.47266 11.3125 9.0625 10.9023 9.0625 10.375C9.0625 9.87695 9.47266 9.4375 10 9.4375C10.498 9.4375 10.9375 9.87695 10.9375 10.375C10.9375 10.9023 10.498 11.3125 10 11.3125ZM7.1875 10.375C7.1875 11.4004 7.71484 12.3086 8.59375 12.8359C9.44336 13.334 10.5273 13.334 11.4062 12.8359C12.2559 12.3086 12.8125 11.4004 12.8125 10.375C12.8125 9.37891 12.2559 8.4707 11.4062 7.94336C10.5273 7.44531 9.44336 7.44531 8.59375 7.94336C7.71484 8.4707 7.1875 9.37891 7.1875 10.375ZM5.3125 9.90625C5.3125 8.88086 5.81055 7.82617 6.63086 7.03516C7.42188 6.21484 8.50586 5.6875 9.53125 5.6875C9.76562 5.6875 10 5.48242 10 5.21875C10 4.98438 9.76562 4.75 9.53125 4.75C8.18359 4.75 6.89453 5.42383 5.95703 6.36133C5.01953 7.29883 4.375 8.58789 4.375 9.90625C4.375 10.1699 4.58008 10.375 4.84375 10.375C5.07812 10.375 5.3125 10.1699 5.3125 9.90625Z" fill="#343E4B"/>
</svg>
