<svg width="74" height="85" viewBox="0 0 74 85" fill="none" xmlns="http://www.w3.org/2000/svg">
<g filter="url(#filter0_f_170_6952)">
<ellipse cx="37" cy="76.5" rx="10" ry="3.5" fill="black" fill-opacity="0.2"/>
</g>
<g filter="url(#filter1_d_170_6952)">
<path fill-rule="evenodd" clip-rule="evenodd" d="M37 6C53.5685 6 67 19.3509 67 35.82C67 48.4474 59.1039 59.2417 47.9519 63.5905L38.7087 76.1489C38.516 76.4118 38.2602 76.6264 37.9628 76.7745C37.6654 76.9227 37.3351 77 37 77C36.6649 77 36.3346 76.9227 36.0372 76.7745C35.7398 76.6264 35.484 76.4118 35.2913 76.1489L26.0481 63.5905C14.8961 59.2417 7 48.4474 7 35.82C7 19.3509 20.4315 6 37 6Z" fill="white"/>
<path d="M35.7029 77.4459L36.0372 76.7745L35.7029 77.4459C36.1051 77.6462 36.5498 77.75 37 77.75C37.4502 77.75 37.8949 77.6462 38.2971 77.4459L37.9628 76.7745L38.2971 77.4459C38.6992 77.2456 39.0483 76.954 39.313 76.5931C39.3132 76.5928 39.3134 76.5926 39.3136 76.5923L48.4279 64.209C59.7486 59.7011 67.75 48.6919 67.75 35.82C67.75 18.9324 53.9785 5.25 37 5.25C20.0215 5.25 6.25 18.9324 6.25 35.82C6.25 48.6919 14.2514 59.7011 25.5721 64.209L34.6864 76.5923C34.6864 76.5923 34.6864 76.5924 34.6864 76.5924C34.9512 76.9536 35.3006 77.2455 35.7029 77.4459Z" stroke="#191F28" stroke-width="1.5"/>
</g>
<path d="M61 36C61 22.7452 50.2548 12 37 12C23.7452 12 13 22.7452 13 36C13 49.2548 23.7452 60 37 60C50.2548 60 61 49.2548 61 36Z" fill="#F3F5F8"/>
<path d="M37 35.875C34.3047 35.875 31.8438 34.4688 30.4961 32.125C29.1484 29.8105 29.1484 26.9688 30.4961 24.625C31.8438 22.3105 34.3047 20.875 37 20.875C39.666 20.875 42.127 22.3105 43.4746 24.625C44.8223 26.9688 44.8223 29.8105 43.4746 32.125C42.127 34.4688 39.666 35.875 37 35.875ZM34.1875 27.4375C33.6602 27.4375 33.25 27.877 33.25 28.375C33.25 28.9023 33.6602 29.3125 34.1875 29.3125C34.6855 29.3125 35.125 28.9023 35.125 28.375C35.125 27.877 34.6855 27.4375 34.1875 27.4375ZM36.0625 28.375C36.0625 28.9023 36.4727 29.3125 37 29.3125C37.498 29.3125 37.9375 28.9023 37.9375 28.375C37.9375 27.877 37.498 27.4375 37 27.4375C36.4727 27.4375 36.0625 27.877 36.0625 28.375ZM39.8125 27.4375C39.2852 27.4375 38.875 27.877 38.875 28.375C38.875 28.9023 39.2852 29.3125 39.8125 29.3125C40.3105 29.3125 40.75 28.9023 40.75 28.375C40.75 27.877 40.3105 27.4375 39.8125 27.4375Z" fill="#343E4B"/>
<path d="M35.7812 40.4141V51.0781H34.2695V40.4141H35.7812ZM32.582 41.5273C32.582 44.7617 31.4453 47.4453 27.6367 49.25L26.8516 48.0547C29.6055 46.7539 30.8184 45.0664 31.0586 42.6992H27.4258V41.5273H32.582ZM42.6602 41.293V42.5117H39.1211V44.2695H42.5078V45.4414H39.1211V47.457C40.6504 47.4453 41.8926 47.3809 43.3164 47.1523L43.457 48.3594C41.8281 48.6055 40.375 48.6523 38.5117 48.6523H37.6094V41.293H42.6602ZM45.6016 40.4141V44.457H47.1719V45.7109H45.6016V51.0781H44.1016V40.4141H45.6016Z" fill="#343E4B"/>
<defs>
<filter id="filter0_f_170_6952" x="25" y="71" width="24" height="11" filterUnits="userSpaceOnUse" color-interpolation-filters="sRGB">
<feFlood flood-opacity="0" result="BackgroundImageFix"/>
<feBlend mode="normal" in="SourceGraphic" in2="BackgroundImageFix" result="shape"/>
<feGaussianBlur stdDeviation="1" result="effect1_foregroundBlur_170_6952"/>
</filter>
<filter id="filter1_d_170_6952" x="0.5" y="0.5" width="73" height="84" filterUnits="userSpaceOnUse" color-interpolation-filters="sRGB">
<feFlood flood-opacity="0" result="BackgroundImageFix"/>
<feColorMatrix in="SourceAlpha" type="matrix" values="0 0 0 0 0 0 0 0 0 0 0 0 0 0 0 0 0 0 127 0" result="hardAlpha"/>
<feOffset dy="1"/>
<feGaussianBlur stdDeviation="2.5"/>
<feComposite in2="hardAlpha" operator="out"/>
<feColorMatrix type="matrix" values="0 0 0 0 0 0 0 0 0 0 0 0 0 0 0 0 0 0 0.1 0"/>
<feBlend mode="normal" in2="BackgroundImageFix" result="effect1_dropShadow_170_6952"/>
<feBlend mode="normal" in="SourceGraphic" in2="effect1_dropShadow_170_6952" result="shape"/>
</filter>
</defs>
</svg>
