<svg width="76" height="87" viewBox="0 0 76 87" fill="none" xmlns="http://www.w3.org/2000/svg">
<g filter="url(#filter0_f_170_7453)">
<ellipse cx="38" cy="77.5" rx="10" ry="3.5" fill="black" fill-opacity="0.2"/>
</g>
<g filter="url(#filter1_d_170_7453)">
<path fill-rule="evenodd" clip-rule="evenodd" d="M38 7C54.5685 7 68 20.3509 68 36.82C68 49.4474 60.1039 60.2417 48.9519 64.5905L39.7087 77.1489C39.516 77.4118 39.2602 77.6264 38.9628 77.7745C38.6654 77.9227 38.3351 78 38 78C37.6649 78 37.3346 77.9227 37.0372 77.7745C36.7398 77.6264 36.484 77.4118 36.2913 77.1489L27.0481 64.5905C15.8961 60.2417 8 49.4474 8 36.82C8 20.3509 21.4315 7 38 7Z" fill="white"/>
<path d="M36.3685 79.1172L37.0372 77.7745L36.3685 79.1172C36.8755 79.3697 37.4348 79.5 38 79.5C38.5652 79.5 39.1245 79.3697 39.6315 79.1172L38.9628 77.7745L39.6315 79.1172C40.1381 78.8649 40.5805 78.4963 40.9173 78.0374C40.9177 78.0368 40.9181 78.0362 40.9185 78.0357L49.9056 65.8253C61.3939 61.1588 69.5 49.9354 69.5 36.82C69.5 19.5139 55.3885 5.5 38 5.5C20.6116 5.5 6.5 19.5139 6.5 36.82C6.5 49.9354 14.6061 61.1588 26.0944 65.8253L35.0815 78.0357C35.0819 78.0362 35.0823 78.0368 35.0827 78.0373C35.4194 78.4962 35.8619 78.8649 36.3685 79.1172Z" stroke="url(#paint0_linear_170_7453)" stroke-width="3"/>
</g>
<path d="M62 37C62 23.7452 51.2548 13 38 13C24.7452 13 14 23.7452 14 37C14 50.2548 24.7452 61 38 61C51.2548 61 62 50.2548 62 37Z" fill="#F3F5F8"/>
<path d="M38 36.875C35.3047 36.875 32.8438 35.4688 31.4961 33.125C30.1484 30.8105 30.1484 27.9688 31.4961 25.625C32.8438 23.3105 35.3047 21.875 38 21.875C40.666 21.875 43.127 23.3105 44.4746 25.625C45.8223 27.9688 45.8223 30.8105 44.4746 33.125C43.127 35.4688 40.666 36.875 38 36.875ZM35.1875 28.4375C34.6602 28.4375 34.25 28.877 34.25 29.375C34.25 29.9023 34.6602 30.3125 35.1875 30.3125C35.6855 30.3125 36.125 29.9023 36.125 29.375C36.125 28.877 35.6855 28.4375 35.1875 28.4375ZM37.0625 29.375C37.0625 29.9023 37.4727 30.3125 38 30.3125C38.498 30.3125 38.9375 29.9023 38.9375 29.375C38.9375 28.877 38.498 28.4375 38 28.4375C37.4727 28.4375 37.0625 28.877 37.0625 29.375ZM40.8125 28.4375C40.2852 28.4375 39.875 28.877 39.875 29.375C39.875 29.9023 40.2852 30.3125 40.8125 30.3125C41.3105 30.3125 41.75 29.9023 41.75 29.375C41.75 28.877 41.3105 28.4375 40.8125 28.4375Z" fill="#343E4B"/>
<path d="M36.7812 41.4141V52.0781H35.2695V41.4141H36.7812ZM33.582 42.5273C33.582 45.7617 32.4453 48.4453 28.6367 50.25L27.8516 49.0547C30.6055 47.7539 31.8184 46.0664 32.0586 43.6992H28.4258V42.5273H33.582ZM43.6602 42.293V43.5117H40.1211V45.2695H43.5078V46.4414H40.1211V48.457C41.6504 48.4453 42.8926 48.3809 44.3164 48.1523L44.457 49.3594C42.8281 49.6055 41.375 49.6523 39.5117 49.6523H38.6094V42.293H43.6602ZM46.6016 41.4141V45.457H48.1719V46.7109H46.6016V52.0781H45.1016V41.4141H46.6016Z" fill="#343E4B"/>
<defs>
<filter id="filter0_f_170_7453" x="26" y="72" width="24" height="11" filterUnits="userSpaceOnUse" color-interpolation-filters="sRGB">
<feFlood flood-opacity="0" result="BackgroundImageFix"/>
<feBlend mode="normal" in="SourceGraphic" in2="BackgroundImageFix" result="shape"/>
<feGaussianBlur stdDeviation="1" result="effect1_foregroundBlur_170_7453"/>
</filter>
<filter id="filter1_d_170_7453" x="0" y="0" width="76" height="87" filterUnits="userSpaceOnUse" color-interpolation-filters="sRGB">
<feFlood flood-opacity="0" result="BackgroundImageFix"/>
<feColorMatrix in="SourceAlpha" type="matrix" values="0 0 0 0 0 0 0 0 0 0 0 0 0 0 0 0 0 0 127 0" result="hardAlpha"/>
<feOffset dy="1"/>
<feGaussianBlur stdDeviation="2.5"/>
<feComposite in2="hardAlpha" operator="out"/>
<feColorMatrix type="matrix" values="0 0 0 0 0 0 0 0 0 0 0 0 0 0 0 0 0 0 0.1 0"/>
<feBlend mode="normal" in2="BackgroundImageFix" result="effect1_dropShadow_170_7453"/>
<feBlend mode="normal" in="SourceGraphic" in2="effect1_dropShadow_170_7453" result="shape"/>
</filter>
<linearGradient id="paint0_linear_170_7453" x1="38" y1="7" x2="38" y2="78" gradientUnits="userSpaceOnUse">
<stop stop-color="#2C5AFF"/>
<stop offset="0.33" stop-color="#65FF7E"/>
<stop offset="0.605" stop-color="#FFF965"/>
<stop offset="1" stop-color="#FF3737"/>
</linearGradient>
</defs>
</svg>
