<svg width="70" height="81" viewBox="0 0 70 81" fill="none" xmlns="http://www.w3.org/2000/svg">
<g filter="url(#filter0_f_173_13262)">
<ellipse cx="35" cy="74.5" rx="10" ry="3.5" fill="black" fill-opacity="0.2"/>
</g>
<g filter="url(#filter1_d_173_13262)">
<path fill-rule="evenodd" clip-rule="evenodd" d="M35 4C51.5685 4 65 17.3509 65 33.82C65 46.4474 57.1039 57.2417 45.9519 61.5905L36.7087 74.1489C36.516 74.4118 36.2602 74.6264 35.9628 74.7745C35.6654 74.9227 35.3351 75 35 75C34.6649 75 34.3346 74.9227 34.0372 74.7745C33.7398 74.6264 33.484 74.4118 33.2913 74.1489L24.0481 61.5905C12.8961 57.2417 5 46.4474 5 33.82C5 17.3509 18.4315 4 35 4Z" fill="#191F28"/>
</g>
<path d="M59 34C59 20.7452 48.2548 10 35 10C21.7452 10 11 20.7452 11 34C11 47.2548 21.7452 58 35 58C48.2548 58 59 47.2548 59 34Z" fill="white"/>
<path d="M35 33.875C32.3047 33.875 29.8438 32.4688 28.4961 30.125C27.1484 27.8105 27.1484 24.9688 28.4961 22.625C29.8438 20.3105 32.3047 18.875 35 18.875C37.666 18.875 40.127 20.3105 41.4746 22.625C42.8223 24.9688 42.8223 27.8105 41.4746 30.125C40.127 32.4688 37.666 33.875 35 33.875ZM32.1875 25.4375C31.6602 25.4375 31.25 25.877 31.25 26.375C31.25 26.9023 31.6602 27.3125 32.1875 27.3125C32.6855 27.3125 33.125 26.9023 33.125 26.375C33.125 25.877 32.6855 25.4375 32.1875 25.4375ZM34.0625 26.375C34.0625 26.9023 34.4727 27.3125 35 27.3125C35.498 27.3125 35.9375 26.9023 35.9375 26.375C35.9375 25.877 35.498 25.4375 35 25.4375C34.4727 25.4375 34.0625 25.877 34.0625 26.375ZM37.8125 25.4375C37.2852 25.4375 36.875 25.877 36.875 26.375C36.875 26.9023 37.2852 27.3125 37.8125 27.3125C38.3105 27.3125 38.75 26.9023 38.75 26.375C38.75 25.877 38.3105 25.4375 37.8125 25.4375Z" fill="#343E4B"/>
<path d="M33.7812 38.4141V49.0781H32.2695V38.4141H33.7812ZM30.582 39.5273C30.582 42.7617 29.4453 45.4453 25.6367 47.25L24.8516 46.0547C27.6055 44.7539 28.8184 43.0664 29.0586 40.6992H25.4258V39.5273H30.582ZM40.6602 39.293V40.5117H37.1211V42.2695H40.5078V43.4414H37.1211V45.457C38.6504 45.4453 39.8926 45.3809 41.3164 45.1523L41.457 46.3594C39.8281 46.6055 38.375 46.6523 36.5117 46.6523H35.6094V39.293H40.6602ZM43.6016 38.4141V42.457H45.1719V43.7109H43.6016V49.0781H42.1016V38.4141H43.6016Z" fill="#343E4B"/>
<defs>
<filter id="filter0_f_173_13262" x="23" y="69" width="24" height="11" filterUnits="userSpaceOnUse" color-interpolation-filters="sRGB">
<feFlood flood-opacity="0" result="BackgroundImageFix"/>
<feBlend mode="normal" in="SourceGraphic" in2="BackgroundImageFix" result="shape"/>
<feGaussianBlur stdDeviation="1" result="effect1_foregroundBlur_173_13262"/>
</filter>
<filter id="filter1_d_173_13262" x="0" y="0" width="70" height="81" filterUnits="userSpaceOnUse" color-interpolation-filters="sRGB">
<feFlood flood-opacity="0" result="BackgroundImageFix"/>
<feColorMatrix in="SourceAlpha" type="matrix" values="0 0 0 0 0 0 0 0 0 0 0 0 0 0 0 0 0 0 127 0" result="hardAlpha"/>
<feOffset dy="1"/>
<feGaussianBlur stdDeviation="2.5"/>
<feComposite in2="hardAlpha" operator="out"/>
<feColorMatrix type="matrix" values="0 0 0 0 0 0 0 0 0 0 0 0 0 0 0 0 0 0 0.1 0"/>
<feBlend mode="normal" in2="BackgroundImageFix" result="effect1_dropShadow_173_13262"/>
<feBlend mode="normal" in="SourceGraphic" in2="effect1_dropShadow_173_13262" result="shape"/>
</filter>
</defs>
</svg>
