<svg width="20" height="20" viewBox="0 0 20 20" fill="none" xmlns="http://www.w3.org/2000/svg">
<path d="M10 17.875C7.30469 17.875 4.84375 16.4688 3.49609 14.125C2.14844 11.8105 2.14844 8.96875 3.49609 6.625C4.84375 4.31055 7.30469 2.875 10 2.875C12.666 2.875 15.127 4.31055 16.4746 6.625C17.8223 8.96875 17.8223 11.8105 16.4746 14.125C15.127 16.4688 12.666 17.875 10 17.875ZM7.1875 9.4375C6.66016 9.4375 6.25 9.87695 6.25 10.375C6.25 10.9023 6.66016 11.3125 7.1875 11.3125C7.68555 11.3125 8.125 10.9023 8.125 10.375C8.125 9.87695 7.68555 9.4375 7.1875 9.4375ZM9.0625 10.375C9.0625 10.9023 9.47266 11.3125 10 11.3125C10.498 11.3125 10.9375 10.9023 10.9375 10.375C10.9375 9.87695 10.498 9.4375 10 9.4375C9.47266 9.4375 9.0625 9.87695 9.0625 10.375ZM12.8125 9.4375C12.2852 9.4375 11.875 9.87695 11.875 10.375C11.875 10.9023 12.2852 11.3125 12.8125 11.3125C13.3105 11.3125 13.75 10.9023 13.75 10.375C13.75 9.87695 13.3105 9.4375 12.8125 9.4375Z" fill="#343E4B"/>
</svg>
