<svg width="74" height="85" viewBox="0 0 74 85" fill="none" xmlns="http://www.w3.org/2000/svg">
<g filter="url(#filter0_f_170_7117)">
<ellipse cx="37" cy="76.5" rx="10" ry="3.5" fill="black" fill-opacity="0.2"/>
</g>
<g filter="url(#filter1_d_170_7117)">
<path fill-rule="evenodd" clip-rule="evenodd" d="M37 6C53.5685 6 67 19.3509 67 35.82C67 48.4474 59.1039 59.2417 47.9519 63.5905L38.7087 76.1489C38.516 76.4118 38.2602 76.6264 37.9628 76.7745C37.6654 76.9227 37.3351 77 37 77C36.6649 77 36.3346 76.9227 36.0372 76.7745C35.7398 76.6264 35.484 76.4118 35.2913 76.1489L26.0481 63.5905C14.8961 59.2417 7 48.4474 7 35.82C7 19.3509 20.4315 6 37 6Z" fill="white"/>
<path d="M35.7029 77.4459L36.0372 76.7745L35.7029 77.4459C36.1051 77.6462 36.5498 77.75 37 77.75C37.4502 77.75 37.8949 77.6462 38.2971 77.4459L37.9628 76.7745L38.2971 77.4459C38.6992 77.2456 39.0483 76.954 39.313 76.5931C39.3132 76.5928 39.3134 76.5926 39.3136 76.5923L48.4279 64.209C59.7486 59.7011 67.75 48.6919 67.75 35.82C67.75 18.9324 53.9785 5.25 37 5.25C20.0215 5.25 6.25 18.9324 6.25 35.82C6.25 48.6919 14.2514 59.7011 25.5721 64.209L34.6864 76.5923C34.6864 76.5923 34.6864 76.5924 34.6864 76.5924C34.9512 76.9536 35.3006 77.2455 35.7029 77.4459Z" stroke="#191F28" stroke-width="1.5"/>
</g>
<path d="M61 36C61 22.7452 50.2548 12 37 12C23.7452 12 13 22.7452 13 36C13 49.2548 23.7452 60 37 60C50.2548 60 61 49.2548 61 36Z" fill="#343E4B"/>
<path d="M37.8203 21.4023L39.7246 25.2988L43.9141 25.9141C44.2656 25.9727 44.5586 26.207 44.6758 26.5586C44.793 26.8809 44.7051 27.2617 44.4414 27.4961L41.3945 30.5137L42.127 34.791C42.1855 35.1426 42.0391 35.4941 41.7461 35.6992C41.4531 35.9336 41.0723 35.9336 40.75 35.7871L37 33.7656L33.2207 35.7871C32.9277 35.9336 32.5469 35.9336 32.2539 35.6992C31.9609 35.4941 31.8145 35.1426 31.873 34.791L32.5762 30.5137L29.5293 27.4961C29.2949 27.2617 29.207 26.8809 29.2949 26.5586C29.4121 26.207 29.7051 25.9727 30.0566 25.9141L34.2754 25.2988L36.1504 21.4023C36.2969 21.0801 36.6191 20.875 37 20.875C37.3516 20.875 37.6738 21.0801 37.8203 21.4023Z" fill="white"/>
<path d="M36.1914 51.0781H34.7617V45.7344H33.8828V50.5625H32.4766V40.5898H33.8828V44.5273H34.7617V40.4141H36.1914V51.0781ZM27.7305 47.4102V42.8281H27.0273V41.6211H31.9492V42.8281H31.2578V47.2578C31.5938 47.2227 31.8555 47.1914 32.043 47.1641L32.125 48.2539C30.9062 48.5117 29.1953 48.6406 26.9922 48.6406L26.8281 47.4102H27.7305ZM29.3652 47.375C29.6152 47.3672 29.8008 47.3594 29.9219 47.3516V42.8281H29.0781V47.3867L29.3652 47.375ZM41.3125 42.2539C41.3125 42.7617 41.3984 43.248 41.5703 43.7129C41.7461 44.1777 42.0137 44.5938 42.373 44.9609C42.7363 45.3281 43.1875 45.6133 43.7266 45.8164L42.8945 46.9766C42.3516 46.7617 41.8848 46.4551 41.4941 46.0566C41.1035 45.6543 40.7949 45.1836 40.5684 44.6445C40.3301 45.2188 40.002 45.7168 39.584 46.1387C39.166 46.5605 38.6602 46.8828 38.0664 47.1055L37.2695 45.9336C37.832 45.7344 38.3027 45.4473 38.6816 45.0723C39.0605 44.6973 39.3398 44.2695 39.5195 43.7891C39.7031 43.3047 39.7969 42.793 39.8008 42.2539V41.0234H41.3125V42.2539ZM39.2031 47.5742H40.7148V49.6953H46.5273V50.8906H39.2031V47.5742ZM42.9883 43.8711H44.8164V43.0156H42.9883V41.8086H44.8164V40.4258H46.3047V48.3359H44.8164V45.0781H42.9883V43.8711Z" fill="white"/>
<defs>
<filter id="filter0_f_170_7117" x="25" y="71" width="24" height="11" filterUnits="userSpaceOnUse" color-interpolation-filters="sRGB">
<feFlood flood-opacity="0" result="BackgroundImageFix"/>
<feBlend mode="normal" in="SourceGraphic" in2="BackgroundImageFix" result="shape"/>
<feGaussianBlur stdDeviation="1" result="effect1_foregroundBlur_170_7117"/>
</filter>
<filter id="filter1_d_170_7117" x="0.5" y="0.5" width="73" height="84" filterUnits="userSpaceOnUse" color-interpolation-filters="sRGB">
<feFlood flood-opacity="0" result="BackgroundImageFix"/>
<feColorMatrix in="SourceAlpha" type="matrix" values="0 0 0 0 0 0 0 0 0 0 0 0 0 0 0 0 0 0 127 0" result="hardAlpha"/>
<feOffset dy="1"/>
<feGaussianBlur stdDeviation="2.5"/>
<feComposite in2="hardAlpha" operator="out"/>
<feColorMatrix type="matrix" values="0 0 0 0 0 0 0 0 0 0 0 0 0 0 0 0 0 0 0.1 0"/>
<feBlend mode="normal" in2="BackgroundImageFix" result="effect1_dropShadow_170_7117"/>
<feBlend mode="normal" in="SourceGraphic" in2="effect1_dropShadow_170_7117" result="shape"/>
</filter>
</defs>
</svg>
