<svg width="20" height="20" viewBox="0 0 20 20" fill="none" xmlns="http://www.w3.org/2000/svg">
<path d="M6.80664 2.875C7.04102 2.875 7.24609 3.05078 7.30469 3.28516C7.65625 4.39844 8.74023 5.21875 10 5.21875C11.2305 5.21875 12.3145 4.39844 12.666 3.28516C12.7246 3.05078 12.9297 2.875 13.1641 2.875H13.5156C14.1895 2.875 14.834 3.10938 15.332 3.54883L19.0234 6.625C19.2285 6.77148 19.3457 7.00586 19.3457 7.26953C19.375 7.5332 19.2871 7.76758 19.1406 7.97266L17.5 9.84766C17.1484 10.2285 16.5625 10.2578 16.1816 9.93555L14.6875 8.67578V16C14.6875 17.0547 13.8379 17.875 12.8125 17.875H7.1875C6.13281 17.875 5.3125 17.0547 5.3125 16V8.67578L3.78906 9.93555C3.4082 10.2578 2.82227 10.2285 2.4707 9.84766L0.830078 7.97266C0.683594 7.76758 0.595703 7.5332 0.625 7.26953C0.625 7.00586 0.742188 6.77148 0.947266 6.625L4.63867 3.54883C5.16602 3.10938 5.78125 2.875 6.45508 2.875H6.80664Z" fill="current"/>
</svg>
