<svg width="74" height="85" viewBox="0 0 74 85" fill="none" xmlns="http://www.w3.org/2000/svg">
<g filter="url(#filter0_f_170_7047)">
<ellipse cx="37" cy="76.5" rx="10" ry="3.5" fill="black" fill-opacity="0.2"/>
</g>
<g filter="url(#filter1_d_170_7047)">
<path fill-rule="evenodd" clip-rule="evenodd" d="M37 6C53.5685 6 67 19.3509 67 35.82C67 48.4474 59.1039 59.2417 47.9519 63.5905L38.7087 76.1489C38.516 76.4118 38.2602 76.6264 37.9628 76.7745C37.6654 76.9227 37.3351 77 37 77C36.6649 77 36.3346 76.9227 36.0372 76.7745C35.7398 76.6264 35.484 76.4118 35.2913 76.1489L26.0481 63.5905C14.8961 59.2417 7 48.4474 7 35.82C7 19.3509 20.4315 6 37 6Z" fill="white"/>
<path d="M35.7029 77.4459L36.0372 76.7745L35.7029 77.4459C36.1051 77.6462 36.5498 77.75 37 77.75C37.4502 77.75 37.8949 77.6462 38.2971 77.4459L37.9628 76.7745L38.2971 77.4459C38.6992 77.2456 39.0483 76.954 39.313 76.5931C39.3132 76.5928 39.3134 76.5926 39.3136 76.5923L48.4279 64.209C59.7486 59.7011 67.75 48.6919 67.75 35.82C67.75 18.9324 53.9785 5.25 37 5.25C20.0215 5.25 6.25 18.9324 6.25 35.82C6.25 48.6919 14.2514 59.7011 25.5721 64.209L34.6864 76.5923C34.6864 76.5923 34.6864 76.5924 34.6864 76.5924C34.9512 76.9536 35.3006 77.2455 35.7029 77.4459Z" stroke="#191F28" stroke-width="1.5"/>
</g>
<path d="M61 36C61 22.7452 50.2548 12 37 12C23.7452 12 13 22.7452 13 36C13 49.2548 23.7452 60 37 60C50.2548 60 61 49.2548 61 36Z" fill="#EF5350"/>
<path d="M30.877 29.6934C29.998 28.873 29.5 27.7012 29.5 26.4707V26.3242C29.5 24.2734 30.9648 22.5156 32.9863 22.1934C34.334 21.959 35.6816 22.3984 36.6484 23.3359L37 23.6875L37.3516 23.3359C38.2891 22.3984 39.666 21.959 40.9844 22.1934C43.0059 22.5156 44.5 24.2734 44.5 26.3242V26.4707C44.5 27.7012 43.9727 28.873 43.0938 29.6934L37.791 34.6445C37.5859 34.8496 37.293 34.9375 37 34.9375C36.6777 34.9375 36.3848 34.8496 36.1797 34.6445L30.877 29.6934Z" fill="white"/>
<path d="M36.1914 40.4141V51.0781H34.7617V45.7344H33.8828V50.5625H32.4766V40.5898H33.8828V44.5273H34.7617V40.4141H36.1914ZM31.9492 41.6211V42.8281H31.2578V47.2578C31.5332 47.2285 31.7969 47.1992 32.043 47.1641L32.125 48.2539C30.4844 48.6055 28.3164 48.6406 26.9922 48.6406L26.8281 47.4102L27.7305 47.3984V42.8281H27.0273V41.6211H31.9492ZM29.0781 47.375L29.9219 47.3516V42.8281H29.0781V47.375ZM41.3125 42.2539C41.3125 43.7305 42.0391 45.1953 43.7266 45.8164L42.8945 46.9766C41.7754 46.5371 41.0078 45.6992 40.5742 44.6445C40.1055 45.7695 39.2793 46.6484 38.0664 47.1055L37.2695 45.9336C39.0156 45.3125 39.8008 43.8125 39.8008 42.2539V41.0234H41.3125V42.2539ZM46.3047 40.4258V48.3359H44.8164V45.0781H42.9883V43.8711H44.8164V43.0156H42.9883V41.8086H44.8164V40.4258H46.3047ZM46.5273 49.6953V50.8906H39.2031V47.5742H40.7148V49.6953H46.5273Z" fill="white"/>
<defs>
<filter id="filter0_f_170_7047" x="25" y="71" width="24" height="11" filterUnits="userSpaceOnUse" color-interpolation-filters="sRGB">
<feFlood flood-opacity="0" result="BackgroundImageFix"/>
<feBlend mode="normal" in="SourceGraphic" in2="BackgroundImageFix" result="shape"/>
<feGaussianBlur stdDeviation="1" result="effect1_foregroundBlur_170_7047"/>
</filter>
<filter id="filter1_d_170_7047" x="0.5" y="0.5" width="73" height="84" filterUnits="userSpaceOnUse" color-interpolation-filters="sRGB">
<feFlood flood-opacity="0" result="BackgroundImageFix"/>
<feColorMatrix in="SourceAlpha" type="matrix" values="0 0 0 0 0 0 0 0 0 0 0 0 0 0 0 0 0 0 127 0" result="hardAlpha"/>
<feOffset dy="1"/>
<feGaussianBlur stdDeviation="2.5"/>
<feComposite in2="hardAlpha" operator="out"/>
<feColorMatrix type="matrix" values="0 0 0 0 0 0 0 0 0 0 0 0 0 0 0 0 0 0 0.1 0"/>
<feBlend mode="normal" in2="BackgroundImageFix" result="effect1_dropShadow_170_7047"/>
<feBlend mode="normal" in="SourceGraphic" in2="effect1_dropShadow_170_7047" result="shape"/>
</filter>
</defs>
</svg>
