<svg width="76" height="87" viewBox="0 0 76 87" fill="none" xmlns="http://www.w3.org/2000/svg">
<g filter="url(#filter0_f_170_7399)">
<ellipse cx="38" cy="77.5" rx="10" ry="3.5" fill="black" fill-opacity="0.2"/>
</g>
<g filter="url(#filter1_d_170_7399)">
<path fill-rule="evenodd" clip-rule="evenodd" d="M38 7C54.5685 7 68 20.3509 68 36.82C68 49.4474 60.1039 60.2417 48.9519 64.5905L39.7087 77.1489C39.516 77.4118 39.2602 77.6264 38.9628 77.7745C38.6654 77.9227 38.3351 78 38 78C37.6649 78 37.3346 77.9227 37.0372 77.7745C36.7398 77.6264 36.484 77.4118 36.2913 77.1489L27.0481 64.5905C15.8961 60.2417 8 49.4474 8 36.82C8 20.3509 21.4315 7 38 7Z" fill="white"/>
<path d="M36.3685 79.1172L37.0372 77.7745L36.3685 79.1172C36.8755 79.3697 37.4348 79.5 38 79.5C38.5652 79.5 39.1245 79.3697 39.6315 79.1172L38.9628 77.7745L39.6315 79.1172C40.1381 78.8649 40.5805 78.4963 40.9173 78.0374C40.9177 78.0368 40.9181 78.0362 40.9185 78.0357L49.9056 65.8253C61.3939 61.1588 69.5 49.9354 69.5 36.82C69.5 19.5139 55.3885 5.5 38 5.5C20.6116 5.5 6.5 19.5139 6.5 36.82C6.5 49.9354 14.6061 61.1588 26.0944 65.8253L35.0815 78.0357C35.0819 78.0362 35.0823 78.0368 35.0827 78.0373C35.4194 78.4962 35.8619 78.8649 36.3685 79.1172Z" stroke="url(#paint0_linear_170_7399)" stroke-width="3"/>
</g>
<path d="M62 37C62 23.7452 51.2548 13 38 13C24.7452 13 14 23.7452 14 37C14 50.2548 24.7452 61 38 61C51.2548 61 62 50.2548 62 37Z" fill="#F3F5F8"/>
<path d="M34.8066 21.875C35.041 21.875 35.2461 22.0508 35.3047 22.2852C35.6562 23.3984 36.7402 24.2188 38 24.2188C39.2305 24.2188 40.3145 23.3984 40.666 22.2852C40.7246 22.0508 40.9297 21.875 41.1641 21.875H41.5156C42.1895 21.875 42.834 22.1094 43.332 22.5488L47.0234 25.625C47.2285 25.7715 47.3457 26.0059 47.3457 26.2695C47.375 26.5332 47.2871 26.7676 47.1406 26.9727L45.5 28.8477C45.1484 29.2285 44.5625 29.2578 44.1816 28.9355L42.6875 27.6758V35C42.6875 36.0547 41.8379 36.875 40.8125 36.875H35.1875C34.1328 36.875 33.3125 36.0547 33.3125 35V27.6758L31.7891 28.9355C31.4082 29.2578 30.8223 29.2285 30.4707 28.8477L28.8301 26.9727C28.6836 26.7676 28.5957 26.5332 28.625 26.2695C28.625 26.0059 28.7422 25.7715 28.9473 25.625L32.6387 22.5488C33.166 22.1094 33.7812 21.875 34.4551 21.875H34.8066Z" fill="#343E4B"/>
<path d="M37.1914 41.4141V52.0781H35.7617V46.7344H34.8828V51.5625H33.4766V41.5898H34.8828V45.5273H35.7617V41.4141H37.1914ZM32.9492 42.6211V43.8281H32.2578V48.2578C32.5332 48.2285 32.7969 48.1992 33.043 48.1641L33.125 49.2539C31.4844 49.6055 29.3164 49.6406 27.9922 49.6406L27.8281 48.4102L28.7305 48.3984V43.8281H28.0273V42.6211H32.9492ZM30.0781 48.375L30.9219 48.3516V43.8281H30.0781V48.375ZM42.3125 43.2539C42.3125 44.7305 43.0391 46.1953 44.7266 46.8164L43.8945 47.9766C42.7754 47.5371 42.0078 46.6992 41.5742 45.6445C41.1055 46.7695 40.2793 47.6484 39.0664 48.1055L38.2695 46.9336C40.0156 46.3125 40.8008 44.8125 40.8008 43.2539V42.0234H42.3125V43.2539ZM47.3047 41.4258V49.3359H45.8164V46.0781H43.9883V44.8711H45.8164V44.0156H43.9883V42.8086H45.8164V41.4258H47.3047ZM47.5273 50.6953V51.8906H40.2031V48.5742H41.7148V50.6953H47.5273Z" fill="#343E4B"/>
<defs>
<filter id="filter0_f_170_7399" x="26" y="72" width="24" height="11" filterUnits="userSpaceOnUse" color-interpolation-filters="sRGB">
<feFlood flood-opacity="0" result="BackgroundImageFix"/>
<feBlend mode="normal" in="SourceGraphic" in2="BackgroundImageFix" result="shape"/>
<feGaussianBlur stdDeviation="1" result="effect1_foregroundBlur_170_7399"/>
</filter>
<filter id="filter1_d_170_7399" x="0" y="0" width="76" height="87" filterUnits="userSpaceOnUse" color-interpolation-filters="sRGB">
<feFlood flood-opacity="0" result="BackgroundImageFix"/>
<feColorMatrix in="SourceAlpha" type="matrix" values="0 0 0 0 0 0 0 0 0 0 0 0 0 0 0 0 0 0 127 0" result="hardAlpha"/>
<feOffset dy="1"/>
<feGaussianBlur stdDeviation="2.5"/>
<feComposite in2="hardAlpha" operator="out"/>
<feColorMatrix type="matrix" values="0 0 0 0 0 0 0 0 0 0 0 0 0 0 0 0 0 0 0.1 0"/>
<feBlend mode="normal" in2="BackgroundImageFix" result="effect1_dropShadow_170_7399"/>
<feBlend mode="normal" in="SourceGraphic" in2="effect1_dropShadow_170_7399" result="shape"/>
</filter>
<linearGradient id="paint0_linear_170_7399" x1="38" y1="7" x2="38" y2="78" gradientUnits="userSpaceOnUse">
<stop stop-color="#2C5AFF"/>
<stop offset="0.33" stop-color="#65FF7E"/>
<stop offset="0.605" stop-color="#FFF965"/>
<stop offset="1" stop-color="#FF3737"/>
</linearGradient>
</defs>
</svg>
