<svg width="74" height="85" viewBox="0 0 74 85" fill="none" xmlns="http://www.w3.org/2000/svg">
<g filter="url(#filter0_f_170_6896)">
<ellipse cx="37" cy="76.5" rx="10" ry="3.5" fill="black" fill-opacity="0.2"/>
</g>
<g filter="url(#filter1_d_170_6896)">
<path fill-rule="evenodd" clip-rule="evenodd" d="M37 6C53.5685 6 67 19.3509 67 35.82C67 48.4474 59.1039 59.2417 47.9519 63.5905L38.7087 76.1489C38.516 76.4118 38.2602 76.6264 37.9628 76.7745C37.6654 76.9227 37.3351 77 37 77C36.6649 77 36.3346 76.9227 36.0372 76.7745C35.7398 76.6264 35.484 76.4118 35.2913 76.1489L26.0481 63.5905C14.8961 59.2417 7 48.4474 7 35.82C7 19.3509 20.4315 6 37 6Z" fill="white"/>
<path d="M35.7029 77.4459L36.0372 76.7745L35.7029 77.4459C36.1051 77.6462 36.5498 77.75 37 77.75C37.4502 77.75 37.8949 77.6462 38.2971 77.4459L37.9628 76.7745L38.2971 77.4459C38.6992 77.2456 39.0483 76.954 39.313 76.5931C39.3132 76.5928 39.3134 76.5926 39.3136 76.5923L48.4279 64.209C59.7486 59.7011 67.75 48.6919 67.75 35.82C67.75 18.9324 53.9785 5.25 37 5.25C20.0215 5.25 6.25 18.9324 6.25 35.82C6.25 48.6919 14.2514 59.7011 25.5721 64.209L34.6864 76.5923C34.6864 76.5923 34.6864 76.5924 34.6864 76.5924C34.9512 76.9536 35.3006 77.2455 35.7029 77.4459Z" stroke="#191F28" stroke-width="1.5"/>
</g>
<path d="M61 36C61 22.7452 50.2548 12 37 12C23.7452 12 13 22.7452 13 36C13 49.2548 23.7452 60 37 60C50.2548 60 61 49.2548 61 36Z" fill="#F3F5F8"/>
<path d="M33.8066 20.875C34.041 20.875 34.2461 21.0508 34.3047 21.2852C34.6562 22.3984 35.7402 23.2188 37 23.2188C38.2305 23.2188 39.3145 22.3984 39.666 21.2852C39.7246 21.0508 39.9297 20.875 40.1641 20.875H40.5156C41.1895 20.875 41.834 21.1094 42.332 21.5488L46.0234 24.625C46.2285 24.7715 46.3457 25.0059 46.3457 25.2695C46.375 25.5332 46.2871 25.7676 46.1406 25.9727L44.5 27.8477C44.1484 28.2285 43.5625 28.2578 43.1816 27.9355L41.6875 26.6758V34C41.6875 35.0547 40.8379 35.875 39.8125 35.875H34.1875C33.1328 35.875 32.3125 35.0547 32.3125 34V26.6758L30.7891 27.9355C30.4082 28.2578 29.8223 28.2285 29.4707 27.8477L27.8301 25.9727C27.6836 25.7676 27.5957 25.5332 27.625 25.2695C27.625 25.0059 27.7422 24.7715 27.9473 24.625L31.6387 21.5488C32.166 21.1094 32.7812 20.875 33.4551 20.875H33.8066Z" fill="#343E4B"/>
<path d="M36.1914 40.4141V51.0781H34.7617V45.7344H33.8828V50.5625H32.4766V40.5898H33.8828V44.5273H34.7617V40.4141H36.1914ZM31.9492 41.6211V42.8281H31.2578V47.2578C31.5332 47.2285 31.7969 47.1992 32.043 47.1641L32.125 48.2539C30.4844 48.6055 28.3164 48.6406 26.9922 48.6406L26.8281 47.4102L27.7305 47.3984V42.8281H27.0273V41.6211H31.9492ZM29.0781 47.375L29.9219 47.3516V42.8281H29.0781V47.375ZM41.3125 42.2539C41.3125 43.7305 42.0391 45.1953 43.7266 45.8164L42.8945 46.9766C41.7754 46.5371 41.0078 45.6992 40.5742 44.6445C40.1055 45.7695 39.2793 46.6484 38.0664 47.1055L37.2695 45.9336C39.0156 45.3125 39.8008 43.8125 39.8008 42.2539V41.0234H41.3125V42.2539ZM46.3047 40.4258V48.3359H44.8164V45.0781H42.9883V43.8711H44.8164V43.0156H42.9883V41.8086H44.8164V40.4258H46.3047ZM46.5273 49.6953V50.8906H39.2031V47.5742H40.7148V49.6953H46.5273Z" fill="#343E4B"/>
<defs>
<filter id="filter0_f_170_6896" x="25" y="71" width="24" height="11" filterUnits="userSpaceOnUse" color-interpolation-filters="sRGB">
<feFlood flood-opacity="0" result="BackgroundImageFix"/>
<feBlend mode="normal" in="SourceGraphic" in2="BackgroundImageFix" result="shape"/>
<feGaussianBlur stdDeviation="1" result="effect1_foregroundBlur_170_6896"/>
</filter>
<filter id="filter1_d_170_6896" x="0.5" y="0.5" width="73" height="84" filterUnits="userSpaceOnUse" color-interpolation-filters="sRGB">
<feFlood flood-opacity="0" result="BackgroundImageFix"/>
<feColorMatrix in="SourceAlpha" type="matrix" values="0 0 0 0 0 0 0 0 0 0 0 0 0 0 0 0 0 0 127 0" result="hardAlpha"/>
<feOffset dy="1"/>
<feGaussianBlur stdDeviation="2.5"/>
<feComposite in2="hardAlpha" operator="out"/>
<feColorMatrix type="matrix" values="0 0 0 0 0 0 0 0 0 0 0 0 0 0 0 0 0 0 0.1 0"/>
<feBlend mode="normal" in2="BackgroundImageFix" result="effect1_dropShadow_170_6896"/>
<feBlend mode="normal" in="SourceGraphic" in2="effect1_dropShadow_170_6896" result="shape"/>
</filter>
</defs>
</svg>
