<svg width="70" height="81" viewBox="0 0 70 81" fill="none" xmlns="http://www.w3.org/2000/svg">
<g filter="url(#filter0_f_173_13207)">
<ellipse cx="35" cy="74.5" rx="10" ry="3.5" fill="black" fill-opacity="0.2"/>
</g>
<g filter="url(#filter1_d_173_13207)">
<path fill-rule="evenodd" clip-rule="evenodd" d="M35 4C51.5685 4 65 17.3509 65 33.82C65 46.4474 57.1039 57.2417 45.9519 61.5905L36.7087 74.1489C36.516 74.4118 36.2602 74.6264 35.9628 74.7745C35.6654 74.9227 35.3351 75 35 75C34.6649 75 34.3346 74.9227 34.0372 74.7745C33.7398 74.6264 33.484 74.4118 33.2913 74.1489L24.0481 61.5905C12.8961 57.2417 5 46.4474 5 33.82C5 17.3509 18.4315 4 35 4Z" fill="#ff5a44"/>
</g>
<path d="M59 34C59 20.7452 48.2548 10 35 10C21.7452 10 11 20.7452 11 34C11 47.2548 21.7452 58 35 58C48.2548 58 59 47.2548 59 34Z" fill="white"/>
<path d="M31.8066 18.875C32.041 18.875 32.2461 19.0508 32.3047 19.2852C32.6562 20.3984 33.7402 21.2188 35 21.2188C36.2305 21.2188 37.3145 20.3984 37.666 19.2852C37.7246 19.0508 37.9297 18.875 38.1641 18.875H38.5156C39.1895 18.875 39.834 19.1094 40.332 19.5488L44.0234 22.625C44.2285 22.7715 44.3457 23.0059 44.3457 23.2695C44.375 23.5332 44.2871 23.7676 44.1406 23.9727L42.5 25.8477C42.1484 26.2285 41.5625 26.2578 41.1816 25.9355L39.6875 24.6758V32C39.6875 33.0547 38.8379 33.875 37.8125 33.875H32.1875C31.1328 33.875 30.3125 33.0547 30.3125 32V24.6758L28.7891 25.9355C28.4082 26.2578 27.8223 26.2285 27.4707 25.8477L25.8301 23.9727C25.6836 23.7676 25.5957 23.5332 25.625 23.2695C25.625 23.0059 25.7422 22.7715 25.9473 22.625L29.6387 19.5488C30.166 19.1094 30.7812 18.875 31.4551 18.875H31.8066Z" fill="#343E4B"/>
<path d="M34.1914 38.4141V49.0781H32.7617V43.7344H31.8828V48.5625H30.4766V38.5898H31.8828V42.5273H32.7617V38.4141H34.1914ZM29.9492 39.6211V40.8281H29.2578V45.2578C29.5332 45.2285 29.7969 45.1992 30.043 45.1641L30.125 46.2539C28.4844 46.6055 26.3164 46.6406 24.9922 46.6406L24.8281 45.4102L25.7305 45.3984V40.8281H25.0273V39.6211H29.9492ZM27.0781 45.375L27.9219 45.3516V40.8281H27.0781V45.375ZM39.3125 40.2539C39.3125 41.7305 40.0391 43.1953 41.7266 43.8164L40.8945 44.9766C39.7754 44.5371 39.0078 43.6992 38.5742 42.6445C38.1055 43.7695 37.2793 44.6484 36.0664 45.1055L35.2695 43.9336C37.0156 43.3125 37.8008 41.8125 37.8008 40.2539V39.0234H39.3125V40.2539ZM44.3047 38.4258V46.3359H42.8164V43.0781H40.9883V41.8711H42.8164V41.0156H40.9883V39.8086H42.8164V38.4258H44.3047ZM44.5273 47.6953V48.8906H37.2031V45.5742H38.7148V47.6953H44.5273Z" fill="#343E4B"/>
<defs>
<filter id="filter0_f_173_13207" x="23" y="69" width="24" height="11" filterUnits="userSpaceOnUse" color-interpolation-filters="sRGB">
<feFlood flood-opacity="0" result="BackgroundImageFix"/>
<feBlend mode="normal" in="SourceGraphic" in2="BackgroundImageFix" result="shape"/>
<feGaussianBlur stdDeviation="1" result="effect1_foregroundBlur_173_13207"/>
</filter>
<filter id="filter1_d_173_13207" x="0" y="0" width="70" height="81" filterUnits="userSpaceOnUse" color-interpolation-filters="sRGB">
<feFlood flood-opacity="0" result="BackgroundImageFix"/>
<feColorMatrix in="SourceAlpha" type="matrix" values="0 0 0 0 0 0 0 0 0 0 0 0 0 0 0 0 0 0 127 0" result="hardAlpha"/>
<feOffset dy="1"/>
<feGaussianBlur stdDeviation="2.5"/>
<feComposite in2="hardAlpha" operator="out"/>
<feColorMatrix type="matrix" values="0 0 0 0 0 0 0 0 0 0 0 0 0 0 0 0 0 0 0.1 0"/>
<feBlend mode="normal" in2="BackgroundImageFix" result="effect1_dropShadow_173_13207"/>
<feBlend mode="normal" in="SourceGraphic" in2="effect1_dropShadow_173_13207" result="shape"/>
</filter>
</defs>
</svg>
