<svg width="20" height="20" viewBox="0 0 20 20" fill="none" xmlns="http://www.w3.org/2000/svg">
<path d="M11.875 5.6875H8.125L6.71875 3.60742C6.51367 3.31445 6.74805 2.875 7.09961 2.875H12.8711C13.2227 2.875 13.457 3.31445 13.252 3.60742L11.875 5.6875ZM8.125 6.625H11.875C11.9629 6.71289 12.1094 6.80078 12.2559 6.88867C13.8965 7.94336 17.5 10.2285 17.5 15.0625C17.5 16.6152 16.2402 17.875 14.6875 17.875H5.3125C3.75977 17.875 2.5 16.6152 2.5 15.0625C2.5 10.2285 6.07422 7.94336 7.74414 6.88867C7.86133 6.80078 8.00781 6.71289 8.125 6.625ZM10.5859 9.20312C10.5859 8.88086 10.3223 8.61719 10 8.61719C9.67773 8.61719 9.41406 8.88086 9.41406 9.20312V9.61328C9.17969 9.67188 8.94531 9.75977 8.74023 9.87695C8.33008 10.1113 7.97852 10.5508 8.00781 11.166C8.00781 11.752 8.35938 12.1328 8.71094 12.3672C9.0332 12.543 9.44336 12.6602 9.76562 12.7773H9.82422C10.1758 12.8945 10.4395 12.9824 10.6445 13.0996C10.791 13.1875 10.791 13.2461 10.791 13.334C10.8203 13.4805 10.7617 13.5684 10.6445 13.627C10.498 13.7441 10.2637 13.7734 10 13.7734C9.67773 13.7734 9.38477 13.6562 8.97461 13.5391C8.91602 13.5098 8.82812 13.4805 8.76953 13.4512C8.44727 13.3633 8.125 13.5098 8.03711 13.832C7.91992 14.125 8.0957 14.4766 8.38867 14.5645C8.44727 14.5938 8.50586 14.5938 8.56445 14.623C8.82812 14.7109 9.0918 14.7988 9.38477 14.8867V15.2969C9.38477 15.6191 9.64844 15.8828 9.9707 15.8828C10.293 15.8828 10.5566 15.6191 10.5566 15.2969V14.916C10.791 14.8574 11.0254 14.7695 11.2598 14.6523C11.6699 14.3887 11.9922 13.9492 11.9629 13.334C11.9629 12.7188 11.6406 12.3379 11.2598 12.1035C10.9082 11.8984 10.498 11.752 10.1758 11.6641H10.1465C9.76562 11.5469 9.50195 11.459 9.32617 11.3418C9.17969 11.2539 9.15039 11.1953 9.15039 11.166C9.15039 11.0488 9.20898 10.9609 9.35547 10.873C9.50195 10.7852 9.73633 10.7266 9.9707 10.7266C10.2637 10.7266 10.5566 10.8145 10.8789 10.9023C11.2012 10.9609 11.5234 10.7852 11.6113 10.4629C11.6992 10.1699 11.4941 9.84766 11.2012 9.75977C10.9961 9.70117 10.791 9.64258 10.5859 9.61328V9.20312Z" fill="#343E4B"/>
</svg>
