<svg width="12" height="13" viewBox="0 0 12 13" fill="none" xmlns="http://www.w3.org/2000/svg">
<path d="M2.25 1.58984V1.96484L3.86719 1.56641C4.75781 1.35547 5.69531 1.44922 6.51562 1.87109C7.59375 2.41016 8.88281 2.41016 9.96094 1.87109L10.1953 1.75391C10.6641 1.51953 11.25 1.87109 11.25 2.41016V8.19922C11.25 8.52734 11.0391 8.78516 10.7578 8.90234L9.9375 9.20703C8.85938 9.62891 7.66406 9.55859 6.60938 9.04297C5.71875 8.59766 4.71094 8.48047 3.75 8.71484L2.25 9.08984V12.0898C2.25 12.5117 1.89844 12.8398 1.5 12.8398C1.07812 12.8398 0.75 12.5117 0.75 12.0898V9.46484V2.33984V1.58984C0.75 1.19141 1.07812 0.839844 1.5 0.839844C1.89844 0.839844 2.25 1.19141 2.25 1.58984Z" fill="#2E7D32"/>
</svg>
