<svg width="76" height="87" viewBox="0 0 76 87" fill="none" xmlns="http://www.w3.org/2000/svg">
<g filter="url(#filter0_f_170_7393)">
<ellipse cx="38" cy="77.5" rx="10" ry="3.5" fill="black" fill-opacity="0.2"/>
</g>
<g filter="url(#filter1_d_170_7393)">
<path fill-rule="evenodd" clip-rule="evenodd" d="M38 7C54.5685 7 68 20.3509 68 36.82C68 49.4474 60.1039 60.2417 48.9519 64.5905L39.7087 77.1489C39.516 77.4118 39.2602 77.6264 38.9628 77.7745C38.6654 77.9227 38.3351 78 38 78C37.6649 78 37.3346 77.9227 37.0372 77.7745C36.7398 77.6264 36.484 77.4118 36.2913 77.1489L27.0481 64.5905C15.8961 60.2417 8 49.4474 8 36.82C8 20.3509 21.4315 7 38 7Z" fill="white"/>
<path d="M36.3685 79.1172L37.0372 77.7745L36.3685 79.1172C36.8755 79.3697 37.4348 79.5 38 79.5C38.5652 79.5 39.1245 79.3697 39.6315 79.1172L38.9628 77.7745L39.6315 79.1172C40.1381 78.8649 40.5805 78.4963 40.9173 78.0374C40.9177 78.0368 40.9181 78.0362 40.9185 78.0357L49.9056 65.8253C61.3939 61.1588 69.5 49.9354 69.5 36.82C69.5 19.5139 55.3885 5.5 38 5.5C20.6116 5.5 6.5 19.5139 6.5 36.82C6.5 49.9354 14.6061 61.1588 26.0944 65.8253L35.0815 78.0357C35.0819 78.0362 35.0823 78.0368 35.0827 78.0373C35.4194 78.4962 35.8619 78.8649 36.3685 79.1172Z" stroke="url(#paint0_linear_170_7393)" stroke-width="3"/>
</g>
<path d="M62 37C62 23.7452 51.2548 13 38 13C24.7452 13 14 23.7452 14 37C14 50.2548 24.7452 61 38 61C51.2548 61 62 50.2548 62 37Z" fill="#F3F5F8"/>
<path d="M43.4785 22.6953L40.8125 25.3613C40.6367 25.5078 40.6367 25.7715 40.8125 25.918C40.9297 26.0645 41.1641 26.0645 41.3398 25.918L44.2402 23.3984C44.416 23.252 44.709 23.252 44.8848 23.4277C45.0605 23.6035 45.0605 23.8965 44.9141 24.0723L42.3945 26.9727C42.248 27.1484 42.248 27.3828 42.3945 27.5C42.541 27.6758 42.8047 27.6758 42.9512 27.5L45.6172 24.834C45.793 24.6582 46.0566 24.6582 46.2617 24.8047C46.4375 24.9512 46.4668 25.2441 46.3496 25.4199L44.2695 28.5547C43.7129 29.375 42.8047 29.8438 41.8086 29.8438C41.252 29.8438 40.7246 29.6973 40.2559 29.4043L33.0195 36.6113C32.668 36.9922 32.0527 36.9922 31.7012 36.6113C31.3203 36.2598 31.3203 35.6445 31.7012 35.293L38.9082 28.0566C38.6152 27.5879 38.4688 27.0605 38.4688 26.5039C38.4688 25.5078 38.9375 24.5996 39.7578 24.043L42.8926 21.9629C43.0977 21.8457 43.3613 21.875 43.5078 22.0508C43.6543 22.2559 43.6543 22.5195 43.4785 22.6953ZM31.0859 22.1094L37.3262 28.3496L34.1035 31.5723C34.0449 31.5137 33.9863 31.4844 33.9277 31.4258C33.7227 31.2207 33.5176 31.0156 33.3125 30.8398C30.9688 28.5254 29.5625 27.1484 29.5625 24.6875C29.5625 23.9844 29.7383 23.0176 29.8848 22.4316C29.9434 22.1094 30.2363 21.875 30.5586 21.875C30.7637 21.875 30.9395 21.9629 31.0859 22.1094ZM42.9512 36.6113L38.6445 32.3047L39.9629 30.9863L44.2695 35.293C44.6504 35.6445 44.6504 36.2598 44.2695 36.6113C43.918 36.9922 43.3027 36.9922 42.9512 36.6113Z" fill="#343E4B"/>
<path d="M32.6797 41.6133C35.0469 41.6133 36.5469 42.3984 36.5586 43.6992C36.5469 44.9883 35.0469 45.7734 32.6797 45.7617C30.3242 45.7734 28.7891 44.9883 28.7891 43.6992C28.7891 42.3984 30.3242 41.6133 32.6797 41.6133ZM32.6797 42.7734C31.1914 42.7734 30.3359 43.0898 30.3477 43.6992C30.3359 44.2969 31.1914 44.6016 32.6797 44.6016C34.1562 44.6016 35.0117 44.2969 35.0117 43.6992C35.0117 43.0898 34.1562 42.7734 32.6797 42.7734ZM36.3828 48.3281V51.9609H28.9414V48.3281H36.3828ZM30.418 49.5117V50.7656H34.918V49.5117H30.418ZM37.543 46.3828V47.5781H27.8164V46.3828H37.543ZM42.2773 42.9258C42.2656 44.2617 43.0273 45.5508 44.7852 46.0781L44.0352 47.25C42.8223 46.8633 41.9844 46.1074 41.5039 45.1289C41.0234 46.1836 40.1562 47.0098 38.9023 47.4141L38.1523 46.2422C39.9336 45.668 40.7188 44.2852 40.7188 42.9258V41.9062H42.2773V42.9258ZM47.1172 48.2344V52.0781H45.6172V49.4297H39.7812V48.2344H47.1172ZM47.1172 41.4141V47.7773H45.6172V41.4141H47.1172Z" fill="#343E4B"/>
<defs>
<filter id="filter0_f_170_7393" x="26" y="72" width="24" height="11" filterUnits="userSpaceOnUse" color-interpolation-filters="sRGB">
<feFlood flood-opacity="0" result="BackgroundImageFix"/>
<feBlend mode="normal" in="SourceGraphic" in2="BackgroundImageFix" result="shape"/>
<feGaussianBlur stdDeviation="1" result="effect1_foregroundBlur_170_7393"/>
</filter>
<filter id="filter1_d_170_7393" x="0" y="0" width="76" height="87" filterUnits="userSpaceOnUse" color-interpolation-filters="sRGB">
<feFlood flood-opacity="0" result="BackgroundImageFix"/>
<feColorMatrix in="SourceAlpha" type="matrix" values="0 0 0 0 0 0 0 0 0 0 0 0 0 0 0 0 0 0 127 0" result="hardAlpha"/>
<feOffset dy="1"/>
<feGaussianBlur stdDeviation="2.5"/>
<feComposite in2="hardAlpha" operator="out"/>
<feColorMatrix type="matrix" values="0 0 0 0 0 0 0 0 0 0 0 0 0 0 0 0 0 0 0.1 0"/>
<feBlend mode="normal" in2="BackgroundImageFix" result="effect1_dropShadow_170_7393"/>
<feBlend mode="normal" in="SourceGraphic" in2="effect1_dropShadow_170_7393" result="shape"/>
</filter>
<linearGradient id="paint0_linear_170_7393" x1="38" y1="7" x2="38" y2="78" gradientUnits="userSpaceOnUse">
<stop stop-color="#2C5AFF"/>
<stop offset="0.33" stop-color="#65FF7E"/>
<stop offset="0.605" stop-color="#FFF965"/>
<stop offset="1" stop-color="#FF3737"/>
</linearGradient>
</defs>
</svg>
