<svg width="74" height="85" viewBox="0 0 74 85" fill="none" xmlns="http://www.w3.org/2000/svg">
<g filter="url(#filter0_f_170_6820)">
<ellipse cx="37" cy="76.5" rx="10" ry="3.5" fill="black" fill-opacity="0.2"/>
</g>
<g filter="url(#filter1_d_170_6820)">
<path fill-rule="evenodd" clip-rule="evenodd" d="M37 6C53.5685 6 67 19.3509 67 35.82C67 48.4474 59.1039 59.2417 47.9519 63.5905L38.7087 76.1489C38.516 76.4118 38.2602 76.6264 37.9628 76.7745C37.6654 76.9227 37.3351 77 37 77C36.6649 77 36.3346 76.9227 36.0372 76.7745C35.7398 76.6264 35.484 76.4118 35.2913 76.1489L26.0481 63.5905C14.8961 59.2417 7 48.4474 7 35.82C7 19.3509 20.4315 6 37 6Z" fill="white"/>
<path d="M35.7029 77.4459L36.0372 76.7745L35.7029 77.4459C36.1051 77.6462 36.5498 77.75 37 77.75C37.4502 77.75 37.8949 77.6462 38.2971 77.4459L37.9628 76.7745L38.2971 77.4459C38.6992 77.2456 39.0483 76.954 39.313 76.5931C39.3132 76.5928 39.3134 76.5926 39.3136 76.5923L48.4279 64.209C59.7486 59.7011 67.75 48.6919 67.75 35.82C67.75 18.9324 53.9785 5.25 37 5.25C20.0215 5.25 6.25 18.9324 6.25 35.82C6.25 48.6919 14.2514 59.7011 25.5721 64.209L34.6864 76.5923C34.6864 76.5923 34.6864 76.5924 34.6864 76.5924C34.9512 76.9536 35.3006 77.2455 35.7029 77.4459Z" stroke="#191F28" stroke-width="1.5"/>
</g>
<path d="M61 36C61 22.7452 50.2548 12 37 12C23.7452 12 13 22.7452 13 36C13 49.2548 23.7452 60 37 60C50.2548 60 61 49.2548 61 36Z" fill="#F3F5F8"/>
<path d="M42.4785 21.6953L39.8125 24.3613C39.6367 24.5078 39.6367 24.7715 39.8125 24.918C39.9297 25.0645 40.1641 25.0645 40.3398 24.918L43.2402 22.3984C43.416 22.252 43.709 22.252 43.8848 22.4277C44.0605 22.6035 44.0605 22.8965 43.9141 23.0723L41.3945 25.9727C41.248 26.1484 41.248 26.3828 41.3945 26.5C41.541 26.6758 41.8047 26.6758 41.9512 26.5L44.6172 23.834C44.793 23.6582 45.0566 23.6582 45.2617 23.8047C45.4375 23.9512 45.4668 24.2441 45.3496 24.4199L43.2695 27.5547C42.7129 28.375 41.8047 28.8438 40.8086 28.8438C40.252 28.8438 39.7246 28.6973 39.2559 28.4043L32.0195 35.6113C31.668 35.9922 31.0527 35.9922 30.7012 35.6113C30.3203 35.2598 30.3203 34.6445 30.7012 34.293L37.9082 27.0566C37.6152 26.5879 37.4688 26.0605 37.4688 25.5039C37.4688 24.5078 37.9375 23.5996 38.7578 23.043L41.8926 20.9629C42.0977 20.8457 42.3613 20.875 42.5078 21.0508C42.6543 21.2559 42.6543 21.5195 42.4785 21.6953ZM30.0859 21.1094L36.3262 27.3496L33.1035 30.5723C33.0449 30.5137 32.9863 30.4844 32.9277 30.4258C32.7227 30.2207 32.5176 30.0156 32.3125 29.8398C29.9688 27.5254 28.5625 26.1484 28.5625 23.6875C28.5625 22.9844 28.7383 22.0176 28.8848 21.4316C28.9434 21.1094 29.2363 20.875 29.5586 20.875C29.7637 20.875 29.9395 20.9629 30.0859 21.1094ZM41.9512 35.6113L37.6445 31.3047L38.9629 29.9863L43.2695 34.293C43.6504 34.6445 43.6504 35.2598 43.2695 35.6113C42.918 35.9922 42.3027 35.9922 41.9512 35.6113Z" fill="#343E4B"/>
<path d="M31.6797 40.6133C34.0469 40.6133 35.5469 41.3984 35.5586 42.6992C35.5469 43.9883 34.0469 44.7734 31.6797 44.7617C29.3242 44.7734 27.7891 43.9883 27.7891 42.6992C27.7891 41.3984 29.3242 40.6133 31.6797 40.6133ZM31.6797 41.7734C30.1914 41.7734 29.3359 42.0898 29.3477 42.6992C29.3359 43.2969 30.1914 43.6016 31.6797 43.6016C33.1562 43.6016 34.0117 43.2969 34.0117 42.6992C34.0117 42.0898 33.1562 41.7734 31.6797 41.7734ZM35.3828 47.3281V50.9609H27.9414V47.3281H35.3828ZM29.418 48.5117V49.7656H33.918V48.5117H29.418ZM36.543 45.3828V46.5781H26.8164V45.3828H36.543ZM41.2773 41.9258C41.2656 43.2617 42.0273 44.5508 43.7852 45.0781L43.0352 46.25C41.8223 45.8633 40.9844 45.1074 40.5039 44.1289C40.0234 45.1836 39.1562 46.0098 37.9023 46.4141L37.1523 45.2422C38.9336 44.668 39.7188 43.2852 39.7188 41.9258V40.9062H41.2773V41.9258ZM46.1172 47.2344V51.0781H44.6172V48.4297H38.7812V47.2344H46.1172ZM46.1172 40.4141V46.7773H44.6172V40.4141H46.1172Z" fill="#343E4B"/>
<defs>
<filter id="filter0_f_170_6820" x="25" y="71" width="24" height="11" filterUnits="userSpaceOnUse" color-interpolation-filters="sRGB">
<feFlood flood-opacity="0" result="BackgroundImageFix"/>
<feBlend mode="normal" in="SourceGraphic" in2="BackgroundImageFix" result="shape"/>
<feGaussianBlur stdDeviation="1" result="effect1_foregroundBlur_170_6820"/>
</filter>
<filter id="filter1_d_170_6820" x="0.5" y="0.5" width="73" height="84" filterUnits="userSpaceOnUse" color-interpolation-filters="sRGB">
<feFlood flood-opacity="0" result="BackgroundImageFix"/>
<feColorMatrix in="SourceAlpha" type="matrix" values="0 0 0 0 0 0 0 0 0 0 0 0 0 0 0 0 0 0 127 0" result="hardAlpha"/>
<feOffset dy="1"/>
<feGaussianBlur stdDeviation="2.5"/>
<feComposite in2="hardAlpha" operator="out"/>
<feColorMatrix type="matrix" values="0 0 0 0 0 0 0 0 0 0 0 0 0 0 0 0 0 0 0.1 0"/>
<feBlend mode="normal" in2="BackgroundImageFix" result="effect1_dropShadow_170_6820"/>
<feBlend mode="normal" in="SourceGraphic" in2="effect1_dropShadow_170_6820" result="shape"/>
</filter>
</defs>
</svg>
