<svg width="20" height="20" viewBox="0 0 20 20" fill="none" xmlns="http://www.w3.org/2000/svg">
<path d="M15.4785 3.69531L12.8125 6.36133C12.6367 6.50781 12.6367 6.77148 12.8125 6.91797C12.9297 7.06445 13.1641 7.06445 13.3398 6.91797L16.2402 4.39844C16.416 4.25195 16.709 4.25195 16.8848 4.42773C17.0605 4.60352 17.0605 4.89648 16.9141 5.07227L14.3945 7.97266C14.248 8.14844 14.248 8.38281 14.3945 8.5C14.541 8.67578 14.8047 8.67578 14.9512 8.5L17.6172 5.83398C17.793 5.6582 18.0566 5.6582 18.2617 5.80469C18.4375 5.95117 18.4668 6.24414 18.3496 6.41992L16.2695 9.55469C15.7129 10.375 14.8047 10.8438 13.8086 10.8438C13.252 10.8438 12.7246 10.6973 12.2559 10.4043L5.01953 17.6113C4.66797 17.9922 4.05273 17.9922 3.70117 17.6113C3.32031 17.2598 3.32031 16.6445 3.70117 16.293L10.9082 9.05664C10.6152 8.58789 10.4688 8.06055 10.4688 7.50391C10.4688 6.50781 10.9375 5.59961 11.7578 5.04297L14.8926 2.96289C15.0977 2.8457 15.3613 2.875 15.5078 3.05078C15.6543 3.25586 15.6543 3.51953 15.4785 3.69531ZM3.08594 3.10938L9.32617 9.34961L6.10352 12.5723C6.04492 12.5137 5.98633 12.4844 5.92773 12.4258C5.72266 12.2207 5.51758 12.0156 5.3125 11.8398C2.96875 9.52539 1.5625 8.14844 1.5625 5.6875C1.5625 4.98438 1.73828 4.01758 1.88477 3.43164C1.94336 3.10938 2.23633 2.875 2.55859 2.875C2.76367 2.875 2.93945 2.96289 3.08594 3.10938ZM14.9512 17.6113L10.6445 13.3047L11.9629 11.9863L16.2695 16.293C16.6504 16.6445 16.6504 17.2598 16.2695 17.6113C15.918 17.9922 15.3027 17.9922 14.9512 17.6113Z" fill="current"/>
</svg>
