<svg width="74" height="85" viewBox="0 0 74 85" fill="none" xmlns="http://www.w3.org/2000/svg">
<g filter="url(#filter0_f_170_7099)">
<ellipse cx="37" cy="76.5" rx="10" ry="3.5" fill="black" fill-opacity="0.2"/>
</g>
<g filter="url(#filter1_d_170_7099)">
<path fill-rule="evenodd" clip-rule="evenodd" d="M37 6C53.5685 6 67 19.3509 67 35.82C67 48.4474 59.1039 59.2417 47.9519 63.5905L38.7087 76.1489C38.516 76.4118 38.2602 76.6264 37.9628 76.7745C37.6654 76.9227 37.3351 77 37 77C36.6649 77 36.3346 76.9227 36.0372 76.7745C35.7398 76.6264 35.484 76.4118 35.2913 76.1489L26.0481 63.5905C14.8961 59.2417 7 48.4474 7 35.82C7 19.3509 20.4315 6 37 6Z" fill="white"/>
<path d="M35.7029 77.4459L36.0372 76.7745L35.7029 77.4459C36.1051 77.6462 36.5498 77.75 37 77.75C37.4502 77.75 37.8949 77.6462 38.2971 77.4459L37.9628 76.7745L38.2971 77.4459C38.6992 77.2456 39.0483 76.954 39.313 76.5931C39.3132 76.5928 39.3134 76.5926 39.3136 76.5923L48.4279 64.209C59.7486 59.7011 67.75 48.6919 67.75 35.82C67.75 18.9324 53.9785 5.25 37 5.25C20.0215 5.25 6.25 18.9324 6.25 35.82C6.25 48.6919 14.2514 59.7011 25.5721 64.209L34.6864 76.5923C34.6864 76.5923 34.6864 76.5924 34.6864 76.5924C34.9512 76.9536 35.3006 77.2455 35.7029 77.4459Z" stroke="#191F28" stroke-width="1.5"/>
</g>
<path d="M61 36C61 22.7452 50.2548 12 37 12C23.7452 12 13 22.7452 13 36C13 49.2548 23.7452 60 37 60C50.2548 60 61 49.2548 61 36Z" fill="#343E4B"/>
<path d="M37.8203 21.4023L39.7246 25.2988L43.9141 25.9141C44.2656 25.9727 44.5586 26.207 44.6758 26.5586C44.793 26.8809 44.7051 27.2617 44.4414 27.4961L41.3945 30.5137L42.127 34.791C42.1855 35.1426 42.0391 35.4941 41.7461 35.6992C41.4531 35.9336 41.0723 35.9336 40.75 35.7871L37 33.7656L33.2207 35.7871C32.9277 35.9336 32.5469 35.9336 32.2539 35.6992C31.9609 35.4941 31.8145 35.1426 31.873 34.791L32.5762 30.5137L29.5293 27.4961C29.2949 27.2617 29.207 26.8809 29.2949 26.5586C29.4121 26.207 29.7051 25.9727 30.0566 25.9141L34.2754 25.2988L36.1504 21.4023C36.2969 21.0801 36.6191 20.875 37 20.875C37.3516 20.875 37.6738 21.0801 37.8203 21.4023Z" fill="white"/>
<path d="M31.6797 40.6133C32.4648 40.6133 33.1484 40.6973 33.7305 40.8652C34.3164 41.0293 34.7676 41.2695 35.084 41.5859C35.4004 41.8984 35.5586 42.2695 35.5586 42.6992C35.5586 43.125 35.4004 43.4941 35.084 43.8066C34.7676 44.1152 34.3184 44.3516 33.7363 44.5156C33.1543 44.6797 32.4688 44.7617 31.6797 44.7617C30.8945 44.7617 30.209 44.6797 29.623 44.5156C29.0371 44.3516 28.584 44.1152 28.2637 43.8066C27.9473 43.4941 27.7891 43.125 27.7891 42.6992C27.7891 42.2695 27.9473 41.8984 28.2637 41.5859C28.584 41.2695 29.0371 41.0293 29.623 40.8652C30.209 40.6973 30.8945 40.6133 31.6797 40.6133ZM26.8164 45.3828H36.543V46.5781H26.8164V45.3828ZM27.9414 47.3281H35.3828V50.9609H27.9414V47.3281ZM29.3477 42.6992C29.3438 42.9961 29.543 43.2207 29.9453 43.373C30.3477 43.5254 30.9258 43.6016 31.6797 43.6016C32.4258 43.6016 33 43.5254 33.4023 43.373C33.8086 43.2207 34.0117 42.9961 34.0117 42.6992C34.0117 42.3945 33.8086 42.1641 33.4023 42.0078C33 41.8516 32.4258 41.7734 31.6797 41.7734C30.9258 41.7734 30.3477 41.8516 29.9453 42.0078C29.543 42.1641 29.3438 42.3945 29.3477 42.6992ZM33.918 49.7656V48.5117H29.418V49.7656H33.918ZM41.2773 41.9258C41.2734 42.3828 41.3613 42.8203 41.541 43.2383C41.7207 43.6523 41.998 44.0215 42.373 44.3457C42.748 44.666 43.2188 44.9102 43.7852 45.0781L43.0352 46.25C42.4414 46.0625 41.9316 45.7871 41.5059 45.4238C41.0801 45.0605 40.7461 44.6289 40.5039 44.1289C40.2578 44.668 39.916 45.1348 39.4785 45.5293C39.041 45.9238 38.5156 46.2188 37.9023 46.4141L37.1523 45.2422C37.7227 45.0586 38.1992 44.7949 38.582 44.4512C38.9688 44.1074 39.2539 43.7188 39.4375 43.2852C39.625 42.8477 39.7188 42.3945 39.7188 41.9258V40.9062H41.2773V41.9258ZM38.7812 47.2344H46.1172V51.0781H44.6172V48.4297H38.7812V47.2344ZM44.6172 40.4141H46.1172V46.7773H44.6172V40.4141Z" fill="white"/>
<defs>
<filter id="filter0_f_170_7099" x="25" y="71" width="24" height="11" filterUnits="userSpaceOnUse" color-interpolation-filters="sRGB">
<feFlood flood-opacity="0" result="BackgroundImageFix"/>
<feBlend mode="normal" in="SourceGraphic" in2="BackgroundImageFix" result="shape"/>
<feGaussianBlur stdDeviation="1" result="effect1_foregroundBlur_170_7099"/>
</filter>
<filter id="filter1_d_170_7099" x="0.5" y="0.5" width="73" height="84" filterUnits="userSpaceOnUse" color-interpolation-filters="sRGB">
<feFlood flood-opacity="0" result="BackgroundImageFix"/>
<feColorMatrix in="SourceAlpha" type="matrix" values="0 0 0 0 0 0 0 0 0 0 0 0 0 0 0 0 0 0 127 0" result="hardAlpha"/>
<feOffset dy="1"/>
<feGaussianBlur stdDeviation="2.5"/>
<feComposite in2="hardAlpha" operator="out"/>
<feColorMatrix type="matrix" values="0 0 0 0 0 0 0 0 0 0 0 0 0 0 0 0 0 0 0.1 0"/>
<feBlend mode="normal" in2="BackgroundImageFix" result="effect1_dropShadow_170_7099"/>
<feBlend mode="normal" in="SourceGraphic" in2="effect1_dropShadow_170_7099" result="shape"/>
</filter>
</defs>
</svg>
