<svg width="70" height="81" viewBox="0 0 70 81" fill="none" xmlns="http://www.w3.org/2000/svg">
<g filter="url(#filter0_f_173_13201)">
<ellipse cx="35" cy="74.5" rx="10" ry="3.5" fill="black" fill-opacity="0.2"/>
</g>
<g filter="url(#filter1_d_173_13201)">
<path fill-rule="evenodd" clip-rule="evenodd" d="M35 4C51.5685 4 65 17.3509 65 33.82C65 46.4474 57.1039 57.2417 45.9519 61.5905L36.7087 74.1489C36.516 74.4118 36.2602 74.6264 35.9628 74.7745C35.6654 74.9227 35.3351 75 35 75C34.6649 75 34.3346 74.9227 34.0372 74.7745C33.7398 74.6264 33.484 74.4118 33.2913 74.1489L24.0481 61.5905C12.8961 57.2417 5 46.4474 5 33.82C5 17.3509 18.4315 4 35 4Z" fill="#ff5a44"/>
</g>
<path d="M59 34C59 20.7452 48.2548 10 35 10C21.7452 10 11 20.7452 11 34C11 47.2548 21.7452 58 35 58C48.2548 58 59 47.2548 59 34Z" fill="white"/>
<path d="M40.4785 19.6953L37.8125 22.3613C37.6367 22.5078 37.6367 22.7715 37.8125 22.918C37.9297 23.0645 38.1641 23.0645 38.3398 22.918L41.2402 20.3984C41.416 20.252 41.709 20.252 41.8848 20.4277C42.0605 20.6035 42.0605 20.8965 41.9141 21.0723L39.3945 23.9727C39.248 24.1484 39.248 24.3828 39.3945 24.5C39.541 24.6758 39.8047 24.6758 39.9512 24.5L42.6172 21.834C42.793 21.6582 43.0566 21.6582 43.2617 21.8047C43.4375 21.9512 43.4668 22.2441 43.3496 22.4199L41.2695 25.5547C40.7129 26.375 39.8047 26.8438 38.8086 26.8438C38.252 26.8438 37.7246 26.6973 37.2559 26.4043L30.0195 33.6113C29.668 33.9922 29.0527 33.9922 28.7012 33.6113C28.3203 33.2598 28.3203 32.6445 28.7012 32.293L35.9082 25.0566C35.6152 24.5879 35.4688 24.0605 35.4688 23.5039C35.4688 22.5078 35.9375 21.5996 36.7578 21.043L39.8926 18.9629C40.0977 18.8457 40.3613 18.875 40.5078 19.0508C40.6543 19.2559 40.6543 19.5195 40.4785 19.6953ZM28.0859 19.1094L34.3262 25.3496L31.1035 28.5723C31.0449 28.5137 30.9863 28.4844 30.9277 28.4258C30.7227 28.2207 30.5176 28.0156 30.3125 27.8398C27.9688 25.5254 26.5625 24.1484 26.5625 21.6875C26.5625 20.9844 26.7383 20.0176 26.8848 19.4316C26.9434 19.1094 27.2363 18.875 27.5586 18.875C27.7637 18.875 27.9395 18.9629 28.0859 19.1094ZM39.9512 33.6113L35.6445 29.3047L36.9629 27.9863L41.2695 32.293C41.6504 32.6445 41.6504 33.2598 41.2695 33.6113C40.918 33.9922 40.3027 33.9922 39.9512 33.6113Z" fill="#343E4B"/>
<path d="M29.6797 38.6133C32.0469 38.6133 33.5469 39.3984 33.5586 40.6992C33.5469 41.9883 32.0469 42.7734 29.6797 42.7617C27.3242 42.7734 25.7891 41.9883 25.7891 40.6992C25.7891 39.3984 27.3242 38.6133 29.6797 38.6133ZM29.6797 39.7734C28.1914 39.7734 27.3359 40.0898 27.3477 40.6992C27.3359 41.2969 28.1914 41.6016 29.6797 41.6016C31.1562 41.6016 32.0117 41.2969 32.0117 40.6992C32.0117 40.0898 31.1562 39.7734 29.6797 39.7734ZM33.3828 45.3281V48.9609H25.9414V45.3281H33.3828ZM27.418 46.5117V47.7656H31.918V46.5117H27.418ZM34.543 43.3828V44.5781H24.8164V43.3828H34.543ZM39.2773 39.9258C39.2656 41.2617 40.0273 42.5508 41.7852 43.0781L41.0352 44.25C39.8223 43.8633 38.9844 43.1074 38.5039 42.1289C38.0234 43.1836 37.1562 44.0098 35.9023 44.4141L35.1523 43.2422C36.9336 42.668 37.7188 41.2852 37.7188 39.9258V38.9062H39.2773V39.9258ZM44.1172 45.2344V49.0781H42.6172V46.4297H36.7812V45.2344H44.1172ZM44.1172 38.4141V44.7773H42.6172V38.4141H44.1172Z" fill="#343E4B"/>
<defs>
<filter id="filter0_f_173_13201" x="23" y="69" width="24" height="11" filterUnits="userSpaceOnUse" color-interpolation-filters="sRGB">
<feFlood flood-opacity="0" result="BackgroundImageFix"/>
<feBlend mode="normal" in="SourceGraphic" in2="BackgroundImageFix" result="shape"/>
<feGaussianBlur stdDeviation="1" result="effect1_foregroundBlur_173_13201"/>
</filter>
<filter id="filter1_d_173_13201" x="0" y="0" width="70" height="81" filterUnits="userSpaceOnUse" color-interpolation-filters="sRGB">
<feFlood flood-opacity="0" result="BackgroundImageFix"/>
<feColorMatrix in="SourceAlpha" type="matrix" values="0 0 0 0 0 0 0 0 0 0 0 0 0 0 0 0 0 0 127 0" result="hardAlpha"/>
<feOffset dy="1"/>
<feGaussianBlur stdDeviation="2.5"/>
<feComposite in2="hardAlpha" operator="out"/>
<feColorMatrix type="matrix" values="0 0 0 0 0 0 0 0 0 0 0 0 0 0 0 0 0 0 0.1 0"/>
<feBlend mode="normal" in2="BackgroundImageFix" result="effect1_dropShadow_173_13201"/>
<feBlend mode="normal" in="SourceGraphic" in2="effect1_dropShadow_173_13201" result="shape"/>
</filter>
</defs>
</svg>
