<svg width="20" height="20" viewBox="0 0 20 20" fill="none" xmlns="http://www.w3.org/2000/svg">
<path d="M6.25 4.75H13.75C16.8555 4.75 19.375 7.26953 19.375 10.375C19.375 13.4805 16.8555 16 13.75 16H6.25C3.14453 16 0.625 13.4805 0.625 10.375C0.625 7.26953 3.14453 4.75 6.25 4.75ZM15.1562 7.79688C14.7168 7.79688 14.3359 8.03125 14.1309 8.38281C13.9258 8.76367 13.9258 9.20312 14.1309 9.55469C14.3359 9.93555 14.7168 10.1406 15.1562 10.1406C15.5664 10.1406 15.9473 9.93555 16.1523 9.55469C16.3574 9.20312 16.3574 8.76367 16.1523 8.38281C15.9473 8.03125 15.5664 7.79688 15.1562 7.79688ZM12.1094 11.7812C12.1094 12.2207 12.3145 12.6016 12.6953 12.8066C13.0469 13.0117 13.4863 13.0117 13.8672 12.8066C14.2188 12.6016 14.4531 12.2207 14.4531 11.7812C14.4531 11.3711 14.2188 10.9902 13.8672 10.7852C13.4863 10.5801 13.0469 10.5801 12.6953 10.7852C12.3145 10.9902 12.1094 11.3711 12.1094 11.7812ZM5.54688 8.73438V9.67188H4.60938C4.19922 9.67188 3.90625 9.99414 3.90625 10.375C3.90625 10.7852 4.19922 11.0781 4.60938 11.0781H5.54688V12.0156C5.54688 12.4258 5.83984 12.7188 6.25 12.7188C6.63086 12.7188 6.95312 12.4258 6.95312 12.0156V11.0781H7.89062C8.27148 11.0781 8.59375 10.7852 8.59375 10.375C8.59375 9.99414 8.27148 9.67188 7.89062 9.67188H6.95312V8.73438C6.95312 8.35352 6.63086 8.03125 6.25 8.03125C5.83984 8.03125 5.54688 8.35352 5.54688 8.73438Z" fill="#343E4B"/>
</svg>
