
<svg width="42" height="42" viewBox="0 0 44 44" fill="none" xmlns="http://www.w3.org/2000/svg">
<rect width="44" height="44" rx="22" fill="white" fill-opacity="0.5"/>
<rect x="0.5" y="0.5" width="43" height="43" rx="21.5" stroke="black" stroke-opacity="0.06"/>
<path d="M20.7891 30.8203L20.7109 30.7031L13.875 24.375C12.6641 23.2422 12 21.6797 12 20.0391V19.9219C12 17.1875 13.9531 14.8047 16.6484 14.2969C18.1719 13.9844 19.7344 14.3359 21.0234 15.2344C21.375 15.4688 21.6875 15.7812 22 16.0938C22.1562 15.9375 22.3125 15.7422 22.5078 15.5859C22.6641 15.4688 22.8203 15.3516 22.9766 15.2344C24.2266 14.3359 25.7891 13.9844 27.3125 14.2969C30.0469 14.8047 32 17.1875 32 19.9219V20.0391C32 21.6797 31.2969 23.2422 30.0859 24.375L23.25 30.7031L23.1719 30.8203C22.8594 31.0938 22.4297 31.2891 22 31.2891C21.5312 31.2891 21.1406 31.0938 20.7891 30.8203ZM21.3359 18.1641C21.2969 18.1641 21.2969 18.1641 21.2969 18.125L20.5938 17.3438C19.6953 16.3281 18.3281 15.8984 17 16.1328C15.1641 16.4844 13.875 18.0859 13.875 19.9219V20.0391C13.875 21.1719 14.3047 22.2266 15.125 22.9688L22 29.3359L28.8359 22.9688C29.6562 22.2266 30.125 21.1719 30.125 20.0391V19.9219C30.125 18.0859 28.7969 16.4844 26.9609 16.1328C25.6328 15.8984 24.2656 16.3281 23.3672 17.3438L22.6641 18.125C22.6641 18.1641 22.6641 18.1641 22.625 18.2031C22.4688 18.3594 22.2344 18.4766 22 18.4766C21.7266 18.4766 21.4922 18.3594 21.3359 18.2031V18.1641Z" fill="black"/>
</svg>
