<svg width="18" height="17" viewBox="0 0 18 17" fill="none" xmlns="http://www.w3.org/2000/svg">
<path d="M1.65234 9.83203C0.597656 8.84766 0 7.44141 0 5.96484V5.78906C0 3.32812 1.75781 1.21875 4.18359 0.832031C5.80078 0.550781 7.41797 1.07812 8.57812 2.20312L9 2.625L9.42188 2.20312C10.5469 1.07812 12.1992 0.550781 13.7812 0.832031C16.207 1.21875 18 3.32812 18 5.78906V5.96484C18 7.44141 17.3672 8.84766 16.3125 9.83203L9.94922 15.7734C9.70312 16.0195 9.35156 16.125 9 16.125C8.61328 16.125 8.26172 16.0195 8.01562 15.7734L1.65234 9.83203Z" fill="current"/>
</svg>
