<svg width="20" height="20" viewBox="0 0 20 20" fill="none" xmlns="http://www.w3.org/2000/svg">
<path d="M5.3125 5.6875C4.78516 5.6875 4.3457 5.42383 4.08203 4.98438C3.81836 4.57422 3.81836 4.01758 4.08203 3.57812C4.3457 3.16797 4.78516 2.875 5.3125 2.875C5.81055 2.875 6.25 3.16797 6.51367 3.57812C6.77734 4.01758 6.77734 4.57422 6.51367 4.98438C6.25 5.42383 5.81055 5.6875 5.3125 5.6875ZM5.07812 16.9375C5.07812 17.4648 4.63867 17.875 4.14062 17.875C3.61328 17.875 3.20312 17.4648 3.20312 16.9375V10.4043L2.35352 11.8105C2.08984 12.25 1.50391 12.3965 1.06445 12.1328C0.625 11.8691 0.478516 11.2832 0.742188 10.8438L2.44141 8.00195C2.96875 7.15234 3.87695 6.625 4.87305 6.625H5.72266C6.71875 6.625 7.62695 7.15234 8.1543 8.00195L9.85352 10.8438C9.94141 10.9902 9.9707 11.1367 10 11.3125C10 11.1367 10.0293 10.9902 10.1172 10.8438L11.6992 8.23633C12.2852 7.24023 13.3398 6.625 14.5117 6.625H14.834C16.0059 6.625 17.0605 7.24023 17.6465 8.23633L19.2285 10.8438C19.4922 11.2832 19.3457 11.8691 18.9062 12.1328C18.4668 12.3965 17.8809 12.25 17.6172 11.8105L16.6211 10.1699L17.7637 13.5098C17.8516 13.832 17.6172 14.125 17.2949 14.125H16.7969V16.9375C16.7969 17.4648 16.3574 17.875 15.8594 17.875C15.332 17.875 14.9219 17.4648 14.9219 16.9375V14.125H14.4531V16.9375C14.4531 17.4648 14.0137 17.875 13.5156 17.875C12.9883 17.875 12.5781 17.4648 12.5781 16.9375V14.125H12.0508C11.7285 14.125 11.4941 13.832 11.6113 13.5098L12.7246 10.1699L11.7285 11.8105C11.4648 12.25 10.8789 12.3965 10.4395 12.1328C10.1465 11.957 10 11.6641 10 11.3418C9.9707 11.6641 9.82422 11.957 9.53125 12.1328C9.0918 12.3965 8.50586 12.25 8.24219 11.8105L7.42188 10.4043V16.9375C7.42188 17.4648 6.98242 17.875 6.48438 17.875C5.95703 17.875 5.54688 17.4648 5.54688 16.9375V13.1875H5.07812V16.9375ZM16.0938 4.28125C16.0938 4.80859 15.8008 5.24805 15.3906 5.51172C14.9512 5.77539 14.3945 5.77539 13.9844 5.51172C13.5449 5.24805 13.2812 4.80859 13.2812 4.28125C13.2812 3.7832 13.5449 3.34375 13.9844 3.08008C14.3945 2.81641 14.9512 2.81641 15.3906 3.08008C15.8008 3.34375 16.0938 3.7832 16.0938 4.28125Z" fill="#343E4B"/>
</svg>
