<svg width="70" height="81" viewBox="0 0 70 81" fill="none" xmlns="http://www.w3.org/2000/svg">
<g filter="url(#filter0_f_173_13250)">
<ellipse cx="35" cy="74.5" rx="10" ry="3.5" fill="black" fill-opacity="0.2"/>
</g>
<g filter="url(#filter1_d_173_13250)">
<path fill-rule="evenodd" clip-rule="evenodd" d="M35 4C51.5685 4 65 17.3509 65 33.82C65 46.4474 57.1039 57.2417 45.9519 61.5905L36.7087 74.1489C36.516 74.4118 36.2602 74.6264 35.9628 74.7745C35.6654 74.9227 35.3351 75 35 75C34.6649 75 34.3346 74.9227 34.0372 74.7745C33.7398 74.6264 33.484 74.4118 33.2913 74.1489L24.0481 61.5905C12.8961 57.2417 5 46.4474 5 33.82C5 17.3509 18.4315 4 35 4Z" fill="#191F28"/>
</g>
<path d="M59 34C59 20.7452 48.2548 10 35 10C21.7452 10 11 20.7452 11 34C11 47.2548 21.7452 58 35 58C48.2548 58 59 47.2548 59 34Z" fill="white"/>
<path d="M27.5 26.375C27.5 23.709 28.9062 21.248 31.25 19.9004C33.5645 18.5527 36.4062 18.5527 38.75 19.9004C41.0645 21.248 42.5 23.709 42.5 26.375C42.5 29.0703 41.0645 31.5312 38.75 32.8789C36.4062 34.2266 33.5645 34.2266 31.25 32.8789C28.9062 31.5312 27.5 29.0703 27.5 26.375ZM35 27.3125C34.4727 27.3125 34.0625 26.9023 34.0625 26.375C34.0625 25.877 34.4727 25.4375 35 25.4375C35.498 25.4375 35.9375 25.877 35.9375 26.375C35.9375 26.9023 35.498 27.3125 35 27.3125ZM32.1875 26.375C32.1875 27.4004 32.7148 28.3086 33.5938 28.8359C34.4434 29.334 35.5273 29.334 36.4062 28.8359C37.2559 28.3086 37.8125 27.4004 37.8125 26.375C37.8125 25.3789 37.2559 24.4707 36.4062 23.9434C35.5273 23.4453 34.4434 23.4453 33.5938 23.9434C32.7148 24.4707 32.1875 25.3789 32.1875 26.375ZM30.3125 25.9062C30.3125 24.8809 30.8105 23.8262 31.6309 23.0352C32.4219 22.2148 33.5059 21.6875 34.5312 21.6875C34.7656 21.6875 35 21.4824 35 21.2188C35 20.9844 34.7656 20.75 34.5312 20.75C33.1836 20.75 31.8945 21.4238 30.957 22.3613C30.0195 23.2988 29.375 24.5879 29.375 25.9062C29.375 26.1699 29.5801 26.375 29.8438 26.375C30.0781 26.375 30.3125 26.1699 30.3125 25.9062Z" fill="#343E4B"/>
<path d="M24.9434 46.5352H19.7871V39.375H24.9434V46.5352ZM23.4902 45.3516V40.5469H21.2871V45.3516H23.4902ZM26.6777 38.4141H28.1895V49.1016H26.6777V38.4141ZM38.5605 49.1016H37.0488V38.4141H38.5605V49.1016ZM30.2754 39.3516H35.4668V40.5703H31.7754V45.293C32.7832 45.293 33.6113 45.2734 34.2598 45.2344C34.9121 45.1914 35.5605 45.1133 36.2051 45L36.3457 46.2305C35.6465 46.3633 34.9258 46.4512 34.1836 46.4941C33.4414 46.5371 32.4473 46.5586 31.2012 46.5586H30.2754V39.3516ZM42.9434 39.1641C43.4199 39.1641 43.8516 39.2891 44.2383 39.5391C44.6289 39.7891 44.9473 40.1484 45.1934 40.6172C45.4434 41.0859 45.6035 41.6367 45.6738 42.2695H47.5254V38.4141H49.002V49.1016H47.5254V43.4648H45.6914C45.6406 44.1367 45.4922 44.7227 45.2461 45.2227C45 45.7227 44.6777 46.1055 44.2793 46.3711C43.8848 46.6367 43.4395 46.7695 42.9434 46.7695C42.4043 46.7695 41.9238 46.6152 41.502 46.3066C41.084 45.9941 40.7578 45.5508 40.5234 44.9766C40.2891 44.3984 40.1738 43.7266 40.1777 42.9609C40.1738 42.1992 40.2891 41.5312 40.5234 40.957C40.7578 40.3828 41.084 39.9414 41.502 39.6328C41.9238 39.3203 42.4043 39.1641 42.9434 39.1641ZM41.6074 42.9609C41.6074 43.4805 41.6621 43.9258 41.7715 44.2969C41.8809 44.6641 42.0371 44.9434 42.2402 45.1348C42.4434 45.3223 42.6777 45.4141 42.9434 45.4102C43.2129 45.4141 43.4473 45.3223 43.6465 45.1348C43.8496 44.9434 44.0059 44.6641 44.1152 44.2969C44.2246 43.9258 44.2793 43.4805 44.2793 42.9609C44.2793 42.4414 44.2246 41.998 44.1152 41.6309C44.0059 41.2637 43.8496 40.9863 43.6465 40.7988C43.4473 40.6074 43.2129 40.5117 42.9434 40.5117C42.6777 40.5117 42.4434 40.6074 42.2402 40.7988C42.0371 40.9863 41.8809 41.2656 41.7715 41.6367C41.6621 42.0039 41.6074 42.4453 41.6074 42.9609Z" fill="#343E4B"/>
<defs>
<filter id="filter0_f_173_13250" x="23" y="69" width="24" height="11" filterUnits="userSpaceOnUse" color-interpolation-filters="sRGB">
<feFlood flood-opacity="0" result="BackgroundImageFix"/>
<feBlend mode="normal" in="SourceGraphic" in2="BackgroundImageFix" result="shape"/>
<feGaussianBlur stdDeviation="1" result="effect1_foregroundBlur_173_13250"/>
</filter>
<filter id="filter1_d_173_13250" x="0" y="0" width="70" height="81" filterUnits="userSpaceOnUse" color-interpolation-filters="sRGB">
<feFlood flood-opacity="0" result="BackgroundImageFix"/>
<feColorMatrix in="SourceAlpha" type="matrix" values="0 0 0 0 0 0 0 0 0 0 0 0 0 0 0 0 0 0 127 0" result="hardAlpha"/>
<feOffset dy="1"/>
<feGaussianBlur stdDeviation="2.5"/>
<feComposite in2="hardAlpha" operator="out"/>
<feColorMatrix type="matrix" values="0 0 0 0 0 0 0 0 0 0 0 0 0 0 0 0 0 0 0.1 0"/>
<feBlend mode="normal" in2="BackgroundImageFix" result="effect1_dropShadow_173_13250"/>
<feBlend mode="normal" in="SourceGraphic" in2="effect1_dropShadow_173_13250" result="shape"/>
</filter>
</defs>
</svg>
