<svg width="74" height="85" viewBox="0 0 74 85" fill="none" xmlns="http://www.w3.org/2000/svg">
<g filter="url(#filter0_f_170_7129)">
<ellipse cx="37" cy="76.5" rx="10" ry="3.5" fill="black" fill-opacity="0.2"/>
</g>
<g filter="url(#filter1_d_170_7129)">
<path fill-rule="evenodd" clip-rule="evenodd" d="M37 6C53.5685 6 67 19.3509 67 35.82C67 48.4474 59.1039 59.2417 47.9519 63.5905L38.7087 76.1489C38.516 76.4118 38.2602 76.6264 37.9628 76.7745C37.6654 76.9227 37.3351 77 37 77C36.6649 77 36.3346 76.9227 36.0372 76.7745C35.7398 76.6264 35.484 76.4118 35.2913 76.1489L26.0481 63.5905C14.8961 59.2417 7 48.4474 7 35.82C7 19.3509 20.4315 6 37 6Z" fill="white"/>
<path d="M35.7029 77.4459L36.0372 76.7745L35.7029 77.4459C36.1051 77.6462 36.5498 77.75 37 77.75C37.4502 77.75 37.8949 77.6462 38.2971 77.4459L37.9628 76.7745L38.2971 77.4459C38.6992 77.2456 39.0483 76.954 39.313 76.5931C39.3132 76.5928 39.3134 76.5926 39.3136 76.5923L48.4279 64.209C59.7486 59.7011 67.75 48.6919 67.75 35.82C67.75 18.9324 53.9785 5.25 37 5.25C20.0215 5.25 6.25 18.9324 6.25 35.82C6.25 48.6919 14.2514 59.7011 25.5721 64.209L34.6864 76.5923C34.6864 76.5923 34.6864 76.5924 34.6864 76.5924C34.9512 76.9536 35.3006 77.2455 35.7029 77.4459Z" stroke="#191F28" stroke-width="1.5"/>
</g>
<path d="M61 36C61 22.7452 50.2548 12 37 12C23.7452 12 13 22.7452 13 36C13 49.2548 23.7452 60 37 60C50.2548 60 61 49.2548 61 36Z" fill="#343E4B"/>
<path d="M37.8203 21.4023L39.7246 25.2988L43.9141 25.9141C44.2656 25.9727 44.5586 26.207 44.6758 26.5586C44.793 26.8809 44.7051 27.2617 44.4414 27.4961L41.3945 30.5137L42.127 34.791C42.1855 35.1426 42.0391 35.4941 41.7461 35.6992C41.4531 35.9336 41.0723 35.9336 40.75 35.7871L37 33.7656L33.2207 35.7871C32.9277 35.9336 32.5469 35.9336 32.2539 35.6992C31.9609 35.4941 31.8145 35.1426 31.873 34.791L32.5762 30.5137L29.5293 27.4961C29.2949 27.2617 29.207 26.8809 29.2949 26.5586C29.4121 26.207 29.7051 25.9727 30.0566 25.9141L34.2754 25.2988L36.1504 21.4023C36.2969 21.0801 36.6191 20.875 37 20.875C37.3516 20.875 37.6738 21.0801 37.8203 21.4023Z" fill="white"/>
<path d="M26.9434 48.5352H21.7871V41.375H26.9434V48.5352ZM25.4902 47.3516V42.5469H23.2871V47.3516H25.4902ZM28.6777 40.4141H30.1895V51.1016H28.6777V40.4141ZM40.5605 51.1016H39.0488V40.4141H40.5605V51.1016ZM32.2754 41.3516H37.4668V42.5703H33.7754V47.293C34.7832 47.293 35.6113 47.2734 36.2598 47.2344C36.9121 47.1914 37.5605 47.1133 38.2051 47L38.3457 48.2305C37.6465 48.3633 36.9258 48.4512 36.1836 48.4941C35.4414 48.5371 34.4473 48.5586 33.2012 48.5586H32.2754V41.3516ZM44.9434 41.1641C45.4199 41.1641 45.8516 41.2891 46.2383 41.5391C46.6289 41.7891 46.9473 42.1484 47.1934 42.6172C47.4434 43.0859 47.6035 43.6367 47.6738 44.2695H49.5254V40.4141H51.002V51.1016H49.5254V45.4648H47.6914C47.6406 46.1367 47.4922 46.7227 47.2461 47.2227C47 47.7227 46.6777 48.1055 46.2793 48.3711C45.8848 48.6367 45.4395 48.7695 44.9434 48.7695C44.4043 48.7695 43.9238 48.6152 43.502 48.3066C43.084 47.9941 42.7578 47.5508 42.5234 46.9766C42.2891 46.3984 42.1738 45.7266 42.1777 44.9609C42.1738 44.1992 42.2891 43.5312 42.5234 42.957C42.7578 42.3828 43.084 41.9414 43.502 41.6328C43.9238 41.3203 44.4043 41.1641 44.9434 41.1641ZM43.6074 44.9609C43.6074 45.4805 43.6621 45.9258 43.7715 46.2969C43.8809 46.6641 44.0371 46.9434 44.2402 47.1348C44.4434 47.3223 44.6777 47.4141 44.9434 47.4102C45.2129 47.4141 45.4473 47.3223 45.6465 47.1348C45.8496 46.9434 46.0059 46.6641 46.1152 46.2969C46.2246 45.9258 46.2793 45.4805 46.2793 44.9609C46.2793 44.4414 46.2246 43.998 46.1152 43.6309C46.0059 43.2637 45.8496 42.9863 45.6465 42.7988C45.4473 42.6074 45.2129 42.5117 44.9434 42.5117C44.6777 42.5117 44.4434 42.6074 44.2402 42.7988C44.0371 42.9863 43.8809 43.2656 43.7715 43.6367C43.6621 44.0039 43.6074 44.4453 43.6074 44.9609Z" fill="white"/>
<defs>
<filter id="filter0_f_170_7129" x="25" y="71" width="24" height="11" filterUnits="userSpaceOnUse" color-interpolation-filters="sRGB">
<feFlood flood-opacity="0" result="BackgroundImageFix"/>
<feBlend mode="normal" in="SourceGraphic" in2="BackgroundImageFix" result="shape"/>
<feGaussianBlur stdDeviation="1" result="effect1_foregroundBlur_170_7129"/>
</filter>
<filter id="filter1_d_170_7129" x="0.5" y="0.5" width="73" height="84" filterUnits="userSpaceOnUse" color-interpolation-filters="sRGB">
<feFlood flood-opacity="0" result="BackgroundImageFix"/>
<feColorMatrix in="SourceAlpha" type="matrix" values="0 0 0 0 0 0 0 0 0 0 0 0 0 0 0 0 0 0 127 0" result="hardAlpha"/>
<feOffset dy="1"/>
<feGaussianBlur stdDeviation="2.5"/>
<feComposite in2="hardAlpha" operator="out"/>
<feColorMatrix type="matrix" values="0 0 0 0 0 0 0 0 0 0 0 0 0 0 0 0 0 0 0.1 0"/>
<feBlend mode="normal" in2="BackgroundImageFix" result="effect1_dropShadow_170_7129"/>
<feBlend mode="normal" in="SourceGraphic" in2="effect1_dropShadow_170_7129" result="shape"/>
</filter>
</defs>
</svg>
