<svg width="76" height="87" viewBox="0 0 76 87" fill="none" xmlns="http://www.w3.org/2000/svg">
<g filter="url(#filter0_f_170_7441)">
<ellipse cx="38" cy="77.5" rx="10" ry="3.5" fill="black" fill-opacity="0.2"/>
</g>
<g filter="url(#filter1_d_170_7441)">
<path fill-rule="evenodd" clip-rule="evenodd" d="M38 7C54.5685 7 68 20.3509 68 36.82C68 49.4474 60.1039 60.2417 48.9519 64.5905L39.7087 77.1489C39.516 77.4118 39.2602 77.6264 38.9628 77.7745C38.6654 77.9227 38.3351 78 38 78C37.6649 78 37.3346 77.9227 37.0372 77.7745C36.7398 77.6264 36.484 77.4118 36.2913 77.1489L27.0481 64.5905C15.8961 60.2417 8 49.4474 8 36.82C8 20.3509 21.4315 7 38 7Z" fill="white"/>
<path d="M36.3685 79.1172L37.0372 77.7745L36.3685 79.1172C36.8755 79.3697 37.4348 79.5 38 79.5C38.5652 79.5 39.1245 79.3697 39.6315 79.1172L38.9628 77.7745L39.6315 79.1172C40.1381 78.8649 40.5805 78.4963 40.9173 78.0374C40.9177 78.0368 40.9181 78.0362 40.9185 78.0357L49.9056 65.8253C61.3939 61.1588 69.5 49.9354 69.5 36.82C69.5 19.5139 55.3885 5.5 38 5.5C20.6116 5.5 6.5 19.5139 6.5 36.82C6.5 49.9354 14.6061 61.1588 26.0944 65.8253L35.0815 78.0357C35.0819 78.0362 35.0823 78.0368 35.0827 78.0373C35.4194 78.4962 35.8619 78.8649 36.3685 79.1172Z" stroke="url(#paint0_linear_170_7441)" stroke-width="3"/>
</g>
<path d="M62 37C62 23.7452 51.2548 13 38 13C24.7452 13 14 23.7452 14 37C14 50.2548 24.7452 61 38 61C51.2548 61 62 50.2548 62 37Z" fill="#F3F5F8"/>
<path d="M30.5 29.375C30.5 26.709 31.9062 24.248 34.25 22.9004C36.5645 21.5527 39.4062 21.5527 41.75 22.9004C44.0645 24.248 45.5 26.709 45.5 29.375C45.5 32.0703 44.0645 34.5312 41.75 35.8789C39.4062 37.2266 36.5645 37.2266 34.25 35.8789C31.9062 34.5312 30.5 32.0703 30.5 29.375ZM38 30.3125C37.4727 30.3125 37.0625 29.9023 37.0625 29.375C37.0625 28.877 37.4727 28.4375 38 28.4375C38.498 28.4375 38.9375 28.877 38.9375 29.375C38.9375 29.9023 38.498 30.3125 38 30.3125ZM35.1875 29.375C35.1875 30.4004 35.7148 31.3086 36.5938 31.8359C37.4434 32.334 38.5273 32.334 39.4062 31.8359C40.2559 31.3086 40.8125 30.4004 40.8125 29.375C40.8125 28.3789 40.2559 27.4707 39.4062 26.9434C38.5273 26.4453 37.4434 26.4453 36.5938 26.9434C35.7148 27.4707 35.1875 28.3789 35.1875 29.375ZM33.3125 28.9062C33.3125 27.8809 33.8105 26.8262 34.6309 26.0352C35.4219 25.2148 36.5059 24.6875 37.5312 24.6875C37.7656 24.6875 38 24.4824 38 24.2188C38 23.9844 37.7656 23.75 37.5312 23.75C36.1836 23.75 34.8945 24.4238 33.957 25.3613C33.0195 26.2988 32.375 27.5879 32.375 28.9062C32.375 29.1699 32.5801 29.375 32.8438 29.375C33.0781 29.375 33.3125 29.1699 33.3125 28.9062Z" fill="#343E4B"/>
<path d="M27.9434 49.5352H22.7871V42.375H27.9434V49.5352ZM26.4902 48.3516V43.5469H24.2871V48.3516H26.4902ZM29.6777 41.4141H31.1895V52.1016H29.6777V41.4141ZM41.5605 52.1016H40.0488V41.4141H41.5605V52.1016ZM33.2754 42.3516H38.4668V43.5703H34.7754V48.293C35.7832 48.293 36.6113 48.2734 37.2598 48.2344C37.9121 48.1914 38.5605 48.1133 39.2051 48L39.3457 49.2305C38.6465 49.3633 37.9258 49.4512 37.1836 49.4941C36.4414 49.5371 35.4473 49.5586 34.2012 49.5586H33.2754V42.3516ZM45.9434 42.1641C46.4199 42.1641 46.8516 42.2891 47.2383 42.5391C47.6289 42.7891 47.9473 43.1484 48.1934 43.6172C48.4434 44.0859 48.6035 44.6367 48.6738 45.2695H50.5254V41.4141H52.002V52.1016H50.5254V46.4648H48.6914C48.6406 47.1367 48.4922 47.7227 48.2461 48.2227C48 48.7227 47.6777 49.1055 47.2793 49.3711C46.8848 49.6367 46.4395 49.7695 45.9434 49.7695C45.4043 49.7695 44.9238 49.6152 44.502 49.3066C44.084 48.9941 43.7578 48.5508 43.5234 47.9766C43.2891 47.3984 43.1738 46.7266 43.1777 45.9609C43.1738 45.1992 43.2891 44.5312 43.5234 43.957C43.7578 43.3828 44.084 42.9414 44.502 42.6328C44.9238 42.3203 45.4043 42.1641 45.9434 42.1641ZM44.6074 45.9609C44.6074 46.4805 44.6621 46.9258 44.7715 47.2969C44.8809 47.6641 45.0371 47.9434 45.2402 48.1348C45.4434 48.3223 45.6777 48.4141 45.9434 48.4102C46.2129 48.4141 46.4473 48.3223 46.6465 48.1348C46.8496 47.9434 47.0059 47.6641 47.1152 47.2969C47.2246 46.9258 47.2793 46.4805 47.2793 45.9609C47.2793 45.4414 47.2246 44.998 47.1152 44.6309C47.0059 44.2637 46.8496 43.9863 46.6465 43.7988C46.4473 43.6074 46.2129 43.5117 45.9434 43.5117C45.6777 43.5117 45.4434 43.6074 45.2402 43.7988C45.0371 43.9863 44.8809 44.2656 44.7715 44.6367C44.6621 45.0039 44.6074 45.4453 44.6074 45.9609Z" fill="#343E4B"/>
<defs>
<filter id="filter0_f_170_7441" x="26" y="72" width="24" height="11" filterUnits="userSpaceOnUse" color-interpolation-filters="sRGB">
<feFlood flood-opacity="0" result="BackgroundImageFix"/>
<feBlend mode="normal" in="SourceGraphic" in2="BackgroundImageFix" result="shape"/>
<feGaussianBlur stdDeviation="1" result="effect1_foregroundBlur_170_7441"/>
</filter>
<filter id="filter1_d_170_7441" x="0" y="0" width="76" height="87" filterUnits="userSpaceOnUse" color-interpolation-filters="sRGB">
<feFlood flood-opacity="0" result="BackgroundImageFix"/>
<feColorMatrix in="SourceAlpha" type="matrix" values="0 0 0 0 0 0 0 0 0 0 0 0 0 0 0 0 0 0 127 0" result="hardAlpha"/>
<feOffset dy="1"/>
<feGaussianBlur stdDeviation="2.5"/>
<feComposite in2="hardAlpha" operator="out"/>
<feColorMatrix type="matrix" values="0 0 0 0 0 0 0 0 0 0 0 0 0 0 0 0 0 0 0.1 0"/>
<feBlend mode="normal" in2="BackgroundImageFix" result="effect1_dropShadow_170_7441"/>
<feBlend mode="normal" in="SourceGraphic" in2="effect1_dropShadow_170_7441" result="shape"/>
</filter>
<linearGradient id="paint0_linear_170_7441" x1="38" y1="7" x2="38" y2="78" gradientUnits="userSpaceOnUse">
<stop stop-color="#2C5AFF"/>
<stop offset="0.33" stop-color="#65FF7E"/>
<stop offset="0.605" stop-color="#FFF965"/>
<stop offset="1" stop-color="#FF3737"/>
</linearGradient>
</defs>
</svg>
