<svg width="44" height="44" viewBox="0 0 44 44" fill="none" xmlns="http://www.w3.org/2000/svg">
<rect width="44" height="44" rx="22" fill="white" fill-opacity="0.5"/>
<rect x="0.5" y="0.5" width="43" height="43" rx="21.5" stroke="black" stroke-opacity="0.06"/>
<path d="M13.8359 24.2578C12.6641 23.1641 12 21.6016 12 19.9609V19.7656C12 17.0312 13.9531 14.6875 16.6484 14.2578C18.4453 13.9453 20.2422 14.5312 21.5312 15.7812L22 16.25L22.4688 15.7812C23.7188 14.5312 25.5547 13.9453 27.3125 14.2578C30.0078 14.6875 32 17.0312 32 19.7656V19.9609C32 21.6016 31.2969 23.1641 30.125 24.2578L23.0547 30.8594C22.7812 31.1328 22.3906 31.25 22 31.25C21.5703 31.25 21.1797 31.1328 20.9062 30.8594L13.8359 24.2578Z" fill="#EF5350"/>
</svg>
