<svg width="25" height="24" viewBox="0 0 25 24" fill="none" xmlns="http://www.w3.org/2000/svg">
<path d="M8.17578 11.4062H16.9648L5.78516 6.625L8.17578 11.4062ZM8.17578 13.0938L5.78516 17.9102L16.9648 13.0938H8.17578ZM5.04688 4.48047L20.7969 11.2305C21.2188 11.4062 21.5 11.8281 21.5 12.2852C21.5 12.707 21.2188 13.1289 20.7969 13.3047L5.04688 20.0547C4.625 20.2305 4.09766 20.125 3.78125 19.7734C3.46484 19.457 3.39453 18.9297 3.60547 18.5078L6.73438 12.25L3.60547 6.02734C3.39453 5.60547 3.46484 5.07812 3.78125 4.72656C4.09766 4.41016 4.625 4.30469 5.04688 4.48047Z" fill="white"/>
</svg>
