<svg width="20" height="19" viewBox="0 0 20 19" fill="none" xmlns="http://www.w3.org/2000/svg">
<path d="M10.9844 0.882812L13.2695 5.55859L18.2969 6.29688C18.7188 6.36719 19.0703 6.64844 19.2109 7.07031C19.3516 7.45703 19.2461 7.91406 18.9297 8.19531L15.2734 11.8164L16.1523 16.9492C16.2227 17.3711 16.0469 17.793 15.6953 18.0391C15.3438 18.3203 14.8867 18.3203 14.5 18.1445L10 15.7188L5.46484 18.1445C5.11328 18.3203 4.65625 18.3203 4.30469 18.0391C3.95312 17.793 3.77734 17.3711 3.84766 16.9492L4.69141 11.8164L1.03516 8.19531C0.753906 7.91406 0.648438 7.45703 0.753906 7.07031C0.894531 6.64844 1.24609 6.36719 1.66797 6.29688L6.73047 5.55859L8.98047 0.882812C9.15625 0.496094 9.54297 0.25 10 0.25C10.4219 0.25 10.8086 0.496094 10.9844 0.882812Z" fill="current"/>
</svg>
